<?xml version="1.0" encoding="utf-8" standalone="no"?>
<!DOCTYPE svg PUBLIC "-//W3C//DTD SVG 1.1//EN"
  "http://www.w3.org/Graphics/SVG/1.1/DTD/svg11.dtd">
<svg xmlns:xlink="http://www.w3.org/1999/xlink" width="423.386725pt" height="299.626428pt" viewBox="0 0 423.386725 299.626428" xmlns="http://www.w3.org/2000/svg" version="1.1">
 <metadata>
  <rdf:RDF xmlns:dc="http://purl.org/dc/elements/1.1/" xmlns:cc="http://creativecommons.org/ns#" xmlns:rdf="http://www.w3.org/1999/02/22-rdf-syntax-ns#">
   <cc:Work>
    <dc:type rdf:resource="http://purl.org/dc/dcmitype/StillImage"/>
    <dc:date>2025-05-27T15:06:49.088861</dc:date>
    <dc:format>image/svg+xml</dc:format>
    <dc:creator>
     <cc:Agent>
      <dc:title>Matplotlib v3.9.2, https://matplotlib.org/</dc:title>
     </cc:Agent>
    </dc:creator>
   </cc:Work>
  </rdf:RDF>
 </metadata>
 <defs>
  <style type="text/css">*{stroke-linejoin: round; stroke-linecap: butt}</style>
 </defs>
 <g id="figure_1">
  <g id="patch_1">
   <path d="M 0 299.626428 
L 423.386725 299.626428 
L 423.386725 0 
L 0 0 
z
" style="fill: #ffffff"/>
  </g>
  <g id="axes_1">
   <g id="patch_2">
    <path d="M 81.386725 228.96 
L 416.186725 228.96 
L 416.186725 7.2 
L 81.386725 7.2 
z
" style="fill: #ffffff"/>
   </g>
   <g id="PathCollection_1">
    <defs>
     <path id="mae5d0cbd5c" d="M 0 3.535534 
C 0.937635 3.535534 1.836992 3.163008 2.5 2.5 
C 3.163008 1.836992 3.535534 0.937635 3.535534 0 
C 3.535534 -0.937635 3.163008 -1.836992 2.5 -2.5 
C 1.836992 -3.163008 0.937635 -3.535534 0 -3.535534 
C -0.937635 -3.535534 -1.836992 -3.163008 -2.5 -2.5 
C -3.163008 -1.836992 -3.535534 -0.937635 -3.535534 0 
C -3.535534 0.937635 -3.163008 1.836992 -2.5 2.5 
C -1.836992 3.163008 -0.937635 3.535534 0 3.535534 
z
" style="stroke: #000000"/>
    </defs>
    <g clip-path="url(#pe569a0b0a7)">
     <use xlink:href="#mae5d0cbd5c" x="142.259453" y="17.28" style="stroke: #000000"/>
     <use xlink:href="#mae5d0cbd5c" x="142.259453" y="67.68" style="stroke: #000000"/>
     <use xlink:href="#mae5d0cbd5c" x="142.259453" y="118.08" style="stroke: #000000"/>
     <use xlink:href="#mae5d0cbd5c" x="142.259453" y="168.48" style="stroke: #000000"/>
     <use xlink:href="#mae5d0cbd5c" x="142.259453" y="218.88" style="stroke: #000000"/>
     <use xlink:href="#mae5d0cbd5c" x="203.13218" y="37.44" style="stroke: #000000"/>
     <use xlink:href="#mae5d0cbd5c" x="203.13218" y="87.84" style="stroke: #000000"/>
     <use xlink:href="#mae5d0cbd5c" x="203.13218" y="148.32" style="stroke: #000000"/>
     <use xlink:href="#mae5d0cbd5c" x="203.13218" y="198.72" style="stroke: #000000"/>
     <use xlink:href="#mae5d0cbd5c" x="264.004907" y="67.68" style="stroke: #000000"/>
     <use xlink:href="#mae5d0cbd5c" x="264.004907" y="118.08" style="stroke: #000000"/>
     <use xlink:href="#mae5d0cbd5c" x="264.004907" y="168.48" style="stroke: #000000"/>
     <use xlink:href="#mae5d0cbd5c" x="324.877634" y="87.84" style="stroke: #000000"/>
     <use xlink:href="#mae5d0cbd5c" x="324.877634" y="148.32" style="stroke: #000000"/>
     <use xlink:href="#mae5d0cbd5c" x="385.750362" y="118.08" style="stroke: #000000"/>
    </g>
   </g>
   <g id="matplotlib.axis_1">
    <g id="xtick_1">
     <g id="line2d_1">
      <defs>
       <path id="mca6e9a8890" d="M 0 0 
L 0 3.5 
" style="stroke: #000000; stroke-width: 0.8"/>
      </defs>
      <g>
       <use xlink:href="#mca6e9a8890" x="142.259453" y="228.96" style="stroke: #000000; stroke-width: 0.8"/>
      </g>
     </g>
     <g id="text_1">
      <!-- $\mathdefault{−0.04}$ -->
      <g transform="translate(106.010841 256.379961) scale(0.3 -0.3)">
       <defs>
        <path id="LMMathSymbols10-Regular-0" d="M 4442 1600 
C 4442 1728 4320 1728 4230 1728 
L 742 1728 
C 653 1728 531 1728 531 1600 
C 531 1472 653 1472 742 1472 
L 4230 1472 
C 4320 1472 4442 1472 4442 1600 
z
" transform="scale(0.015625)"/>
        <path id="LMRoman17-Regular-30" d="M 2688 2038 
C 2688 2430 2682 3099 2413 3613 
C 2176 4063 1798 4224 1466 4224 
C 1158 4224 768 4082 525 3620 
C 269 3137 243 2539 243 2038 
C 243 1671 250 1112 448 623 
C 723 -39 1216 -128 1466 -128 
C 1760 -128 2208 -7 2470 604 
C 2662 1048 2688 1568 2688 2038 
z
M 2278 2109 
C 2278 1691 2278 1176 2202 797 
C 2067 96 1690 -26 1466 -26 
C 1056 -26 813 328 723 816 
C 653 1196 653 1749 653 2109 
C 653 2604 653 3015 736 3407 
C 858 3954 1216 4121 1466 4121 
C 1728 4121 2067 3947 2189 3420 
C 2272 3054 2278 2623 2278 2109 
z
" transform="scale(0.015625)"/>
        <path id="LMMathItalic12-Regular-3a" d="M 1178 307 
C 1178 492 1024 620 870 620 
C 685 620 557 467 557 313 
C 557 128 710 0 864 0 
C 1050 0 1178 153 1178 307 
z
" transform="scale(0.015625)"/>
        <path id="LMRoman17-Regular-34" d="M 2803 1088 
L 2803 1254 
L 2150 1254 
L 2150 4146 
C 2150 4281 2144 4288 2029 4288 
L 128 1254 
L 128 1088 
L 1779 1088 
L 1779 460 
C 1779 230 1766 166 1318 166 
L 1197 166 
L 1197 0 
C 1402 12 1747 12 1965 12 
C 2182 12 2528 12 2733 0 
L 2733 166 
L 2611 166 
C 2163 166 2150 230 2150 460 
L 2150 1088 
L 2803 1088 
z
M 1798 1254 
L 256 1254 
L 1798 3723 
L 1798 1254 
z
" transform="scale(0.015625)"/>
       </defs>
       <use xlink:href="#LMMathSymbols10-Regular-0" transform="scale(0.996264)"/>
       <use xlink:href="#LMRoman17-Regular-30" transform="translate(77.487468 0) scale(0.996264)"/>
       <use xlink:href="#LMMathItalic12-Regular-3a" transform="translate(123.178416 0) scale(0.996264)"/>
       <use xlink:href="#LMRoman17-Regular-30" transform="translate(150.275593 0) scale(0.996264)"/>
       <use xlink:href="#LMRoman17-Regular-34" transform="translate(195.966541 0) scale(0.996264)"/>
      </g>
     </g>
    </g>
    <g id="xtick_2">
     <g id="line2d_2">
      <g>
       <use xlink:href="#mca6e9a8890" x="264.004907" y="228.96" style="stroke: #000000; stroke-width: 0.8"/>
      </g>
     </g>
     <g id="text_2">
      <!-- $\mathdefault{−0.02}$ -->
      <g transform="translate(227.756295 256.379961) scale(0.3 -0.3)">
       <defs>
        <path id="LMRoman17-Regular-32" d="M 2669 990 
L 2554 990 
C 2490 537 2438 460 2413 422 
C 2381 371 1920 371 1830 371 
L 602 371 
L 1824 1596 
C 2214 1966 2669 2400 2669 3033 
C 2669 3788 2067 4224 1395 4224 
C 691 4224 262 3603 262 3027 
C 262 2777 448 2745 525 2745 
C 589 2745 781 2783 781 3007 
C 781 3206 614 3264 525 3264 
C 486 3264 448 3257 422 3244 
C 544 3788 915 4057 1306 4057 
C 1862 4057 2227 3616 2227 3033 
C 2227 2477 1901 1998 1536 1583 
L 262 147 
L 262 0 
L 2515 0 
L 2669 990 
z
" transform="scale(0.015625)"/>
       </defs>
       <use xlink:href="#LMMathSymbols10-Regular-0" transform="scale(0.996264)"/>
       <use xlink:href="#LMRoman17-Regular-30" transform="translate(77.487468 0) scale(0.996264)"/>
       <use xlink:href="#LMMathItalic12-Regular-3a" transform="translate(123.178416 0) scale(0.996264)"/>
       <use xlink:href="#LMRoman17-Regular-30" transform="translate(150.275593 0) scale(0.996264)"/>
       <use xlink:href="#LMRoman17-Regular-32" transform="translate(195.966541 0) scale(0.996264)"/>
      </g>
     </g>
    </g>
    <g id="xtick_3">
     <g id="line2d_3">
      <g>
       <use xlink:href="#mca6e9a8890" x="385.750362" y="228.96" style="stroke: #000000; stroke-width: 0.8"/>
      </g>
     </g>
     <g id="text_3">
      <!-- $\mathdefault{0.00}$ -->
      <g transform="translate(361.124865 256.379961) scale(0.3 -0.3)">
       <use xlink:href="#LMRoman17-Regular-30" transform="scale(0.996264)"/>
       <use xlink:href="#LMMathItalic12-Regular-3a" transform="translate(45.690948 0) scale(0.996264)"/>
       <use xlink:href="#LMRoman17-Regular-30" transform="translate(72.788125 0) scale(0.996264)"/>
       <use xlink:href="#LMRoman17-Regular-30" transform="translate(118.479074 0) scale(0.996264)"/>
      </g>
     </g>
    </g>
    <g id="text_4">
     <!-- Re $\lambda$ -->
     <g transform="translate(219.498515 286.613176) scale(0.3 -0.3)">
      <defs>
       <path id="LMRoman17-Regular-52" d="M 4365 531 
C 4365 569 4365 614 4307 614 
C 4256 614 4250 576 4250 550 
C 4218 140 4032 0 3834 0 
C 3482 0 3443 397 3405 787 
C 3386 921 3373 1017 3360 1158 
C 3322 1482 3270 1951 2509 2182 
C 3117 2303 3629 2709 3629 3216 
C 3629 3811 2950 4352 2054 4352 
L 333 4352 
L 333 4185 
C 774 4185 845 4185 845 3900 
L 845 448 
C 845 166 774 166 333 166 
L 333 0 
C 518 12 851 12 1050 12 
C 1248 12 1581 12 1766 0 
L 1766 166 
C 1325 166 1254 166 1254 448 
L 1254 2137 
L 2003 2137 
C 2368 2137 2573 1989 2662 1906 
C 2918 1655 2918 1482 2918 1045 
C 2918 614 2918 397 3110 185 
C 3354 -103 3680 -128 3821 -128 
C 4294 -103 4365 428 4365 537 
L 4365 531 
z
M 3142 3216 
C 3142 2398 2464 2240 1984 2240 
L 1254 2240 
L 1254 3938 
C 1254 4154 1267 4185 1523 4185 
L 1990 4185 
C 2522 4185 3142 4001 3142 3216 
z
" transform="scale(0.015625)"/>
       <path id="LMRoman17-Regular-65" d="M 2464 1606 
C 2464 2251 2118 2816 1389 2816 
C 710 2816 173 2175 173 1394 
C 173 554 781 -64 1459 -64 
C 2176 -64 2458 619 2458 755 
C 2458 800 2406 800 2406 800 
C 2362 800 2355 787 2330 709 
C 2189 270 1837 51 1504 51 
C 1229 51 954 206 781 490 
C 582 819 582 1200 582 1503 
L 2438 1503 
C 2464 1523 2464 1535 2464 1600 
L 2464 1606 
z
M 2118 1593 
L 589 1600 
C 634 2511 1126 2713 1382 2713 
C 1818 2713 2112 2308 2118 1600 
L 2118 1593 
z
" transform="scale(0.015625)"/>
       <path id="LMMathItalic12-Regular-15" d="M 3424 -14 
C 3424 12 3418 18 3392 44 
C 3334 114 3290 228 3264 305 
L 1978 3963 
C 1818 4416 1312 4416 1229 4416 
C 1190 4416 1120 4416 1120 4352 
C 1120 4301 1158 4294 1190 4288 
C 1286 4275 1363 4263 1466 4078 
C 1530 3957 2189 2042 2189 2042 
C 2189 2042 2182 2029 2131 1978 
L 467 305 
C 390 228 339 177 339 95 
C 339 5 416 -71 518 -71 
C 544 -71 614 -58 653 -20 
C 755 75 1670 1189 2253 1876 
L 2822 260 
C 2854 165 2886 75 2976 -7 
C 3040 -64 3053 -64 3232 -64 
L 3354 -64 
C 3379 -64 3424 -64 3424 -14 
z
" transform="scale(0.015625)"/>
      </defs>
      <use xlink:href="#LMRoman17-Regular-52" transform="scale(0.996264)"/>
      <use xlink:href="#LMRoman17-Regular-65" transform="translate(67.789779 0) scale(0.996264)"/>
      <use xlink:href="#LMMathItalic12-Regular-15" transform="translate(138.350737 0) scale(0.996264)"/>
     </g>
    </g>
   </g>
   <g id="matplotlib.axis_2">
    <g id="ytick_1">
     <g id="line2d_4">
      <defs>
       <path id="mda096b564f" d="M 0 0 
L -3.5 0 
" style="stroke: #000000; stroke-width: 0.8"/>
      </defs>
      <g>
       <use xlink:href="#mda096b564f" x="81.386725" y="198.72" style="stroke: #000000; stroke-width: 0.8"/>
      </g>
     </g>
     <g id="text_5">
      <!-- $\mathdefault{−2}$ -->
      <g transform="translate(37.433214 208.929981) scale(0.3 -0.3)">
       <use xlink:href="#LMMathSymbols10-Regular-0" transform="scale(0.996264)"/>
       <use xlink:href="#LMRoman17-Regular-32" transform="translate(77.487468 0) scale(0.996264)"/>
      </g>
     </g>
    </g>
    <g id="ytick_2">
     <g id="line2d_5">
      <g>
       <use xlink:href="#mda096b564f" x="81.386725" y="118.08" style="stroke: #000000; stroke-width: 0.8"/>
      </g>
     </g>
     <g id="text_6">
      <!-- $\mathdefault{0}$ -->
      <g transform="translate(60.679445 128.289981) scale(0.3 -0.3)">
       <use xlink:href="#LMRoman17-Regular-30" transform="scale(0.996264)"/>
      </g>
     </g>
    </g>
    <g id="ytick_3">
     <g id="line2d_6">
      <g>
       <use xlink:href="#mda096b564f" x="81.386725" y="37.44" style="stroke: #000000; stroke-width: 0.8"/>
      </g>
     </g>
     <g id="text_7">
      <!-- $\mathdefault{2}$ -->
      <g transform="translate(60.679445 47.649981) scale(0.3 -0.3)">
       <use xlink:href="#LMRoman17-Regular-32" transform="scale(0.996264)"/>
      </g>
     </g>
    </g>
    <g id="text_8">
     <!-- Im $\lambda$ -->
     <g transform="translate(27.619961 147.561052) rotate(-90) scale(0.3 -0.3)">
      <defs>
       <path id="LMRoman17-Regular-49" d="M 1798 0 
L 1798 166 
C 1338 166 1261 166 1261 453 
L 1261 3898 
C 1261 4185 1338 4185 1798 4185 
L 1798 4352 
C 1594 4339 1267 4339 1050 4339 
C 832 4339 506 4339 301 4352 
L 301 4185 
C 762 4185 838 4185 838 3898 
L 838 453 
C 838 166 762 166 301 166 
L 301 0 
C 506 12 832 12 1050 12 
C 1267 12 1594 12 1798 0 
z
" transform="scale(0.015625)"/>
       <path id="LMRoman17-Regular-6d" d="M 4762 0 
L 4762 166 
C 4352 166 4326 192 4326 443 
L 4326 1954 
C 4326 2276 4269 2816 3507 2816 
C 3072 2816 2771 2520 2656 2173 
L 2650 2173 
C 2573 2700 2195 2816 1837 2816 
C 1331 2816 1069 2424 973 2166 
L 966 2166 
L 966 2816 
L 211 2752 
L 211 2585 
C 589 2585 646 2546 646 2237 
L 646 443 
C 646 198 621 166 211 166 
L 211 0 
C 365 12 646 12 813 12 
C 979 12 1267 12 1421 0 
L 1421 166 
C 1011 166 986 192 986 443 
L 986 1682 
C 986 2269 1344 2713 1792 2713 
C 2266 2713 2317 2289 2317 1980 
L 2317 443 
C 2317 198 2291 166 1882 166 
L 1882 0 
C 2035 12 2317 12 2483 12 
C 2650 12 2938 12 3091 0 
L 3091 166 
C 2682 166 2656 192 2656 443 
L 2656 1678 
C 2656 2269 3014 2713 3462 2713 
C 3936 2713 3987 2289 3987 1980 
L 3987 443 
C 3987 198 3962 166 3552 166 
L 3552 0 
C 3706 12 3987 12 4154 12 
C 4320 12 4608 12 4762 0 
z
" transform="scale(0.015625)"/>
      </defs>
      <use xlink:href="#LMRoman17-Regular-49" transform="scale(0.996264)"/>
      <use xlink:href="#LMRoman17-Regular-6d" transform="translate(32.638029 0) scale(0.996264)"/>
      <use xlink:href="#LMMathItalic12-Regular-15" transform="translate(139.636337 0) scale(0.996264)"/>
     </g>
    </g>
   </g>
   <g id="line2d_7">
    <path d="M 81.386725 118.08 
L 416.186725 118.08 
" clip-path="url(#pe569a0b0a7)" style="fill: none; stroke-dasharray: 3.7,1.6; stroke-dashoffset: 0; stroke: #000000"/>
   </g>
   <g id="patch_3">
    <path d="M 81.386725 228.96 
L 81.386725 7.2 
" style="fill: none; stroke: #000000; stroke-width: 0.8; stroke-linejoin: miter; stroke-linecap: square"/>
   </g>
   <g id="patch_4">
    <path d="M 416.186725 228.96 
L 416.186725 7.2 
" style="fill: none; stroke: #000000; stroke-width: 0.8; stroke-linejoin: miter; stroke-linecap: square"/>
   </g>
   <g id="patch_5">
    <path d="M 81.386725 228.96 
L 416.186725 228.96 
" style="fill: none; stroke: #000000; stroke-width: 0.8; stroke-linejoin: miter; stroke-linecap: square"/>
   </g>
   <g id="patch_6">
    <path d="M 81.386725 7.2 
L 416.186725 7.2 
" style="fill: none; stroke: #000000; stroke-width: 0.8; stroke-linejoin: miter; stroke-linecap: square"/>
   </g>
  </g>
 </g>
 <defs>
  <clipPath id="pe569a0b0a7">
   <rect x="81.386725" y="7.2" width="334.8" height="221.76"/>
  </clipPath>
 </defs>
</svg>
