<?xml version="1.0" encoding="utf-8" standalone="no"?>
<!DOCTYPE svg PUBLIC "-//W3C//DTD SVG 1.1//EN"
  "http://www.w3.org/Graphics/SVG/1.1/DTD/svg11.dtd">
<svg xmlns:xlink="http://www.w3.org/1999/xlink" width="425.631633pt" height="299.626428pt" viewBox="0 0 425.631633 299.626428" xmlns="http://www.w3.org/2000/svg" version="1.1">
 <metadata>
  <rdf:RDF xmlns:dc="http://purl.org/dc/elements/1.1/" xmlns:cc="http://creativecommons.org/ns#" xmlns:rdf="http://www.w3.org/1999/02/22-rdf-syntax-ns#">
   <cc:Work>
    <dc:type rdf:resource="http://purl.org/dc/dcmitype/StillImage"/>
    <dc:date>2025-05-26T17:48:50.243992</dc:date>
    <dc:format>image/svg+xml</dc:format>
    <dc:creator>
     <cc:Agent>
      <dc:title>Matplotlib v3.9.2, https://matplotlib.org/</dc:title>
     </cc:Agent>
    </dc:creator>
   </cc:Work>
  </rdf:RDF>
 </metadata>
 <defs>
  <style type="text/css">*{stroke-linejoin: round; stroke-linecap: butt}</style>
 </defs>
 <g id="figure_1">
  <g id="patch_1">
   <path d="M 0 299.626428 
L 425.631633 299.626428 
L 425.631633 0 
L 0 0 
L 0 299.626428 
z
" style="fill: none"/>
  </g>
  <g id="axes_1">
   <g id="patch_2">
    <path d="M 83.631633 228.96 
L 418.431633 228.96 
L 418.431633 7.2 
L 83.631633 7.2 
L 83.631633 228.96 
z
" style="fill: none"/>
   </g>
   <g id="PolyCollection_1">
    <defs>
     <path id="m530eeb060b" d="M 101.312083 -70.666428 
L 103.719633 -74.721468 
L 107.067633 -80.233788 
L 110.415633 -85.619388 
L 113.763633 -90.878268 
L 117.111633 -96.010428 
L 120.459633 -101.015868 
L 123.807633 -105.894588 
L 127.155633 -110.646588 
L 130.503633 -115.271868 
L 133.851633 -119.770428 
L 137.199633 -124.142268 
L 140.547633 -128.387388 
L 143.895633 -132.505788 
L 147.243633 -136.497468 
L 150.591633 -140.362428 
L 153.939633 -144.100668 
L 157.287633 -147.712188 
L 160.635633 -151.196988 
L 163.983633 -154.555068 
L 167.331633 -157.786428 
L 170.679633 -160.891068 
L 174.027633 -163.868988 
L 177.375633 -166.720188 
L 180.723633 -169.444668 
L 184.071633 -172.042428 
L 187.419633 -174.513468 
L 190.767633 -176.857788 
L 194.115633 -179.075388 
L 197.463633 -181.166268 
L 200.811633 -183.130428 
L 204.159633 -184.967868 
L 207.507633 -186.678588 
L 210.855633 -188.262588 
L 214.203633 -189.719868 
L 217.551633 -191.050428 
L 220.899633 -192.254268 
L 224.247633 -193.331388 
L 227.595633 -194.281788 
L 230.943633 -195.105468 
L 234.291633 -195.802428 
L 237.639633 -196.372668 
L 240.987633 -196.816188 
L 244.335633 -197.132988 
L 247.683633 -197.323068 
L 251.031633 -197.386428 
L 254.379633 -197.323068 
L 257.727633 -197.132988 
L 261.075633 -196.816188 
L 264.423633 -196.372668 
L 267.771633 -195.802428 
L 271.119633 -195.105468 
L 274.467633 -194.281788 
L 277.815633 -193.331388 
L 281.163633 -192.254268 
L 284.511633 -191.050428 
L 287.859633 -189.719868 
L 291.207633 -188.262588 
L 294.555633 -186.678588 
L 297.903633 -184.967868 
L 301.251633 -183.130428 
L 304.599633 -181.166268 
L 307.947633 -179.075388 
L 311.295633 -176.857788 
L 314.643633 -174.513468 
L 317.991633 -172.042428 
L 321.339633 -169.444668 
L 324.687633 -166.720188 
L 328.035633 -163.868988 
L 331.383633 -160.891068 
L 334.731633 -157.786428 
L 338.079633 -154.555068 
L 341.427633 -151.196988 
L 344.775633 -147.712188 
L 348.123633 -144.100668 
L 351.471633 -140.362428 
L 354.819633 -136.497468 
L 358.167633 -132.505788 
L 361.515633 -128.387388 
L 364.863633 -124.142268 
L 368.211633 -119.770428 
L 371.559633 -115.271868 
L 374.907633 -110.646588 
L 378.255633 -105.894588 
L 381.603633 -101.015868 
L 384.951633 -96.010428 
L 388.299633 -90.878268 
L 391.647633 -85.619388 
L 394.995633 -80.233788 
L 398.343633 -74.721468 
L 400.751184 -70.666428 
L 398.343633 -70.666428 
L 394.995633 -70.666428 
L 391.647633 -70.666428 
L 388.299633 -70.666428 
L 384.951633 -70.666428 
L 381.603633 -70.666428 
L 378.255633 -70.666428 
L 374.907633 -70.666428 
L 371.559633 -70.666428 
L 368.211633 -70.666428 
L 364.863633 -70.666428 
L 361.515633 -70.666428 
L 358.167633 -70.666428 
L 354.819633 -70.666428 
L 351.471633 -70.666428 
L 348.123633 -70.666428 
L 344.775633 -70.666428 
L 341.427633 -70.666428 
L 338.079633 -70.666428 
L 334.731633 -70.666428 
L 331.383633 -70.666428 
L 328.035633 -70.666428 
L 324.687633 -70.666428 
L 321.339633 -70.666428 
L 317.991633 -70.666428 
L 314.643633 -70.666428 
L 311.295633 -70.666428 
L 307.947633 -70.666428 
L 304.599633 -70.666428 
L 301.251633 -70.666428 
L 297.903633 -70.666428 
L 294.555633 -70.666428 
L 291.207633 -70.666428 
L 287.859633 -70.666428 
L 284.511633 -70.666428 
L 281.163633 -70.666428 
L 277.815633 -70.666428 
L 274.467633 -70.666428 
L 271.119633 -70.666428 
L 267.771633 -70.666428 
L 264.423633 -70.666428 
L 261.075633 -70.666428 
L 257.727633 -70.666428 
L 254.379633 -70.666428 
L 251.031633 -70.666428 
L 247.683633 -70.666428 
L 244.335633 -70.666428 
L 240.987633 -70.666428 
L 237.639633 -70.666428 
L 234.291633 -70.666428 
L 230.943633 -70.666428 
L 227.595633 -70.666428 
L 224.247633 -70.666428 
L 220.899633 -70.666428 
L 217.551633 -70.666428 
L 214.203633 -70.666428 
L 210.855633 -70.666428 
L 207.507633 -70.666428 
L 204.159633 -70.666428 
L 200.811633 -70.666428 
L 197.463633 -70.666428 
L 194.115633 -70.666428 
L 190.767633 -70.666428 
L 187.419633 -70.666428 
L 184.071633 -70.666428 
L 180.723633 -70.666428 
L 177.375633 -70.666428 
L 174.027633 -70.666428 
L 170.679633 -70.666428 
L 167.331633 -70.666428 
L 163.983633 -70.666428 
L 160.635633 -70.666428 
L 157.287633 -70.666428 
L 153.939633 -70.666428 
L 150.591633 -70.666428 
L 147.243633 -70.666428 
L 143.895633 -70.666428 
L 140.547633 -70.666428 
L 137.199633 -70.666428 
L 133.851633 -70.666428 
L 130.503633 -70.666428 
L 127.155633 -70.666428 
L 123.807633 -70.666428 
L 120.459633 -70.666428 
L 117.111633 -70.666428 
L 113.763633 -70.666428 
L 110.415633 -70.666428 
L 107.067633 -70.666428 
L 103.719633 -70.666428 
z
" style="stroke: #0f3455; stroke-opacity: 0.25"/>
    </defs>
    <g clip-path="url(#pb27650775b)">
     <use xlink:href="#m530eeb060b" x="0" y="299.626428" style="fill: #0f3455; fill-opacity: 0.25; stroke: #0f3455; stroke-opacity: 0.25"/>
    </g>
   </g>
   <g id="PolyCollection_2">
    <defs>
     <path id="m5d7389edcb" d="M 83.631633 -292.426428 
L 83.631633 -292.426428 
L 86.979633 -292.426428 
L 90.327633 -292.426428 
L 93.675633 -292.426428 
L 97.023633 -292.426428 
L 100.371633 -292.426428 
L 103.719633 -292.426428 
L 107.067633 -292.426428 
L 110.415633 -292.426428 
L 113.763633 -292.426428 
L 117.111633 -292.426428 
L 120.459633 -292.426428 
L 123.807633 -292.426428 
L 127.155633 -292.426428 
L 130.503633 -292.426428 
L 133.851633 -292.426428 
L 137.199633 -292.426428 
L 140.547633 -292.426428 
L 143.895633 -292.426428 
L 147.243633 -292.426428 
L 150.591633 -292.426428 
L 153.939633 -292.426428 
L 157.287633 -292.426428 
L 160.635633 -292.426428 
L 163.983633 -292.426428 
L 167.331633 -292.426428 
L 170.679633 -292.426428 
L 174.027633 -292.426428 
L 177.375633 -292.426428 
L 180.723633 -292.426428 
L 184.071633 -292.426428 
L 187.419633 -292.426428 
L 190.767633 -292.426428 
L 194.115633 -292.426428 
L 197.463633 -292.426428 
L 200.811633 -292.426428 
L 204.159633 -292.426428 
L 207.507633 -292.426428 
L 210.855633 -292.426428 
L 214.203633 -292.426428 
L 217.551633 -292.426428 
L 220.899633 -292.426428 
L 224.247633 -292.426428 
L 227.595633 -292.426428 
L 230.943633 -292.426428 
L 234.291633 -292.426428 
L 237.639633 -292.426428 
L 240.987633 -292.426428 
L 244.335633 -292.426428 
L 247.683633 -292.426428 
L 251.031633 -292.426428 
L 254.379633 -292.426428 
L 257.727633 -292.426428 
L 261.075633 -292.426428 
L 264.423633 -292.426428 
L 267.771633 -292.426428 
L 271.119633 -292.426428 
L 274.467633 -292.426428 
L 277.815633 -292.426428 
L 281.163633 -292.426428 
L 284.511633 -292.426428 
L 287.859633 -292.426428 
L 291.207633 -292.426428 
L 294.555633 -292.426428 
L 297.903633 -292.426428 
L 301.251633 -292.426428 
L 304.599633 -292.426428 
L 307.947633 -292.426428 
L 311.295633 -292.426428 
L 314.643633 -292.426428 
L 317.991633 -292.426428 
L 321.339633 -292.426428 
L 324.687633 -292.426428 
L 328.035633 -292.426428 
L 331.383633 -292.426428 
L 334.731633 -292.426428 
L 338.079633 -292.426428 
L 341.427633 -292.426428 
L 344.775633 -292.426428 
L 348.123633 -292.426428 
L 351.471633 -292.426428 
L 354.819633 -292.426428 
L 358.167633 -292.426428 
L 361.515633 -292.426428 
L 364.863633 -292.426428 
L 368.211633 -292.426428 
L 371.559633 -292.426428 
L 374.907633 -292.426428 
L 378.255633 -292.426428 
L 381.603633 -292.426428 
L 384.951633 -292.426428 
L 388.299633 -292.426428 
L 391.647633 -292.426428 
L 394.995633 -292.426428 
L 398.343633 -292.426428 
L 401.691633 -292.426428 
L 405.039633 -292.426428 
L 408.387633 -292.426428 
L 411.735633 -292.426428 
L 415.083633 -292.426428 
L 418.431633 -292.426428 
L 418.431633 -292.426428 
L 418.431633 -38.986428 
L 415.083633 -45.259068 
L 411.735633 -51.404988 
L 408.387633 -57.424188 
L 405.039633 -63.316668 
L 401.691633 -69.082428 
L 398.343633 -74.721468 
L 394.995633 -80.233788 
L 391.647633 -85.619388 
L 388.299633 -90.878268 
L 384.951633 -96.010428 
L 381.603633 -101.015868 
L 378.255633 -105.894588 
L 374.907633 -110.646588 
L 371.559633 -115.271868 
L 368.211633 -119.770428 
L 364.863633 -124.142268 
L 361.515633 -128.387388 
L 358.167633 -132.505788 
L 354.819633 -136.497468 
L 351.471633 -140.362428 
L 348.123633 -144.100668 
L 344.775633 -147.712188 
L 341.427633 -151.196988 
L 338.079633 -154.555068 
L 334.731633 -157.786428 
L 331.383633 -160.891068 
L 328.035633 -163.868988 
L 324.687633 -166.720188 
L 321.339633 -169.444668 
L 317.991633 -172.042428 
L 314.643633 -174.513468 
L 311.295633 -176.857788 
L 307.947633 -179.075388 
L 304.599633 -181.166268 
L 301.251633 -183.130428 
L 297.903633 -184.967868 
L 294.555633 -186.678588 
L 291.207633 -188.262588 
L 287.859633 -189.719868 
L 284.511633 -191.050428 
L 281.163633 -192.254268 
L 277.815633 -193.331388 
L 274.467633 -194.281788 
L 271.119633 -195.105468 
L 267.771633 -195.802428 
L 264.423633 -196.372668 
L 261.075633 -196.816188 
L 257.727633 -197.132988 
L 254.379633 -197.323068 
L 251.031633 -197.386428 
L 247.683633 -197.323068 
L 244.335633 -197.132988 
L 240.987633 -196.816188 
L 237.639633 -196.372668 
L 234.291633 -195.802428 
L 230.943633 -195.105468 
L 227.595633 -194.281788 
L 224.247633 -193.331388 
L 220.899633 -192.254268 
L 217.551633 -191.050428 
L 214.203633 -189.719868 
L 210.855633 -188.262588 
L 207.507633 -186.678588 
L 204.159633 -184.967868 
L 200.811633 -183.130428 
L 197.463633 -181.166268 
L 194.115633 -179.075388 
L 190.767633 -176.857788 
L 187.419633 -174.513468 
L 184.071633 -172.042428 
L 180.723633 -169.444668 
L 177.375633 -166.720188 
L 174.027633 -163.868988 
L 170.679633 -160.891068 
L 167.331633 -157.786428 
L 163.983633 -154.555068 
L 160.635633 -151.196988 
L 157.287633 -147.712188 
L 153.939633 -144.100668 
L 150.591633 -140.362428 
L 147.243633 -136.497468 
L 143.895633 -132.505788 
L 140.547633 -128.387388 
L 137.199633 -124.142268 
L 133.851633 -119.770428 
L 130.503633 -115.271868 
L 127.155633 -110.646588 
L 123.807633 -105.894588 
L 120.459633 -101.015868 
L 117.111633 -96.010428 
L 113.763633 -90.878268 
L 110.415633 -85.619388 
L 107.067633 -80.233788 
L 103.719633 -74.721468 
L 100.371633 -69.082428 
L 97.023633 -63.316668 
L 93.675633 -57.424188 
L 90.327633 -51.404988 
L 86.979633 -45.259068 
L 83.631633 -38.986428 
z
" style="stroke: #e99b74; stroke-opacity: 0.5"/>
    </defs>
    <g clip-path="url(#pb27650775b)">
     <use xlink:href="#m5d7389edcb" x="0" y="299.626428" style="fill: #e99b74; fill-opacity: 0.5; stroke: #e99b74; stroke-opacity: 0.5"/>
    </g>
   </g>
   <g id="matplotlib.axis_1">
    <g id="xtick_1">
     <g id="line2d_1">
      <defs>
       <path id="m61d69a10c8" d="M 0 0 
L 0 3.5 
" style="stroke: #000000; stroke-width: 0.8"/>
      </defs>
      <g>
       <use xlink:href="#m61d69a10c8" x="100.371633" y="228.96" style="stroke: #000000; stroke-width: 0.8"/>
      </g>
     </g>
     <g id="text_1">
      <!-- $-\pi$ -->
      <g transform="translate(80.448117 256.379961) scale(0.3 -0.3)">
       <defs>
        <path id="LMMathSymbols10-Regular-0" d="M 4442 1600 
C 4442 1728 4320 1728 4230 1728 
L 742 1728 
C 653 1728 531 1728 531 1600 
C 531 1472 653 1472 742 1472 
L 4230 1472 
C 4320 1472 4442 1472 4442 1600 
z
" transform="scale(0.015625)"/>
        <path id="LMMathItalic12-Regular-19" d="M 3539 2611 
C 3539 2752 3418 2752 3302 2752 
L 1197 2752 
C 1050 2752 832 2752 538 2438 
C 371 2253 166 1914 166 1876 
C 166 1838 198 1825 237 1825 
C 282 1825 288 1844 320 1883 
C 653 2406 986 2406 1146 2406 
L 1510 2406 
C 1370 1927 1210 1372 685 255 
C 634 153 634 140 634 101 
C 634 -33 749 -64 806 -64 
C 992 -64 1043 101 1120 370 
C 1222 695 1222 708 1286 963 
L 1658 2406 
L 2381 2406 
C 2208 1691 2099 1225 2099 714 
C 2099 625 2099 -64 2362 -64 
C 2496 -64 2611 57 2611 165 
C 2611 197 2611 210 2566 306 
C 2394 746 2394 1295 2394 1340 
C 2394 1378 2394 1831 2528 2406 
L 3245 2406 
C 3328 2406 3539 2406 3539 2611 
z
" transform="scale(0.015625)"/>
       </defs>
       <use xlink:href="#LMMathSymbols10-Regular-0" transform="scale(0.996264)"/>
       <use xlink:href="#LMMathItalic12-Regular-19" transform="translate(77.487468 0) scale(0.996264)"/>
      </g>
     </g>
    </g>
    <g id="xtick_2">
     <g id="line2d_2">
      <g>
       <use xlink:href="#m61d69a10c8" x="251.031633" y="228.96" style="stroke: #000000; stroke-width: 0.8"/>
      </g>
     </g>
     <g id="text_2">
      <!-- $0$ -->
      <g transform="translate(244.177993 256.379961) scale(0.3 -0.3)">
       <defs>
        <path id="LMRoman17-Regular-30" d="M 2688 2038 
C 2688 2430 2682 3099 2413 3613 
C 2176 4063 1798 4224 1466 4224 
C 1158 4224 768 4082 525 3620 
C 269 3137 243 2539 243 2038 
C 243 1671 250 1112 448 623 
C 723 -39 1216 -128 1466 -128 
C 1760 -128 2208 -7 2470 604 
C 2662 1048 2688 1568 2688 2038 
z
M 2278 2109 
C 2278 1691 2278 1176 2202 797 
C 2067 96 1690 -26 1466 -26 
C 1056 -26 813 328 723 816 
C 653 1196 653 1749 653 2109 
C 653 2604 653 3015 736 3407 
C 858 3954 1216 4121 1466 4121 
C 1728 4121 2067 3947 2189 3420 
C 2272 3054 2278 2623 2278 2109 
z
" transform="scale(0.015625)"/>
       </defs>
       <use xlink:href="#LMRoman17-Regular-30" transform="scale(0.996264)"/>
      </g>
     </g>
    </g>
    <g id="xtick_3">
     <g id="line2d_3">
      <g>
       <use xlink:href="#m61d69a10c8" x="401.691633" y="228.96" style="stroke: #000000; stroke-width: 0.8"/>
      </g>
     </g>
     <g id="text_3">
      <!-- $\pi$ -->
      <g transform="translate(393.391232 256.379961) scale(0.3 -0.3)">
       <use xlink:href="#LMMathItalic12-Regular-19" transform="scale(0.996264)"/>
      </g>
     </g>
    </g>
    <g id="text_4">
     <!-- $\varphi$ -->
     <g transform="translate(241.44618 286.613176) scale(0.3 -0.3)">
      <defs>
       <path id="LMMathItalic12-Regular-27" d="M 3725 1807 
C 3725 1079 2906 281 1926 281 
C 1818 281 1722 281 1722 313 
C 1722 313 1830 926 1869 1066 
C 2074 1883 2560 2471 3117 2471 
C 3533 2471 3725 2158 3725 1807 
z
M 3885 1954 
C 3885 2343 3712 2816 3174 2816 
C 2253 2816 1862 1520 1504 319 
C 768 460 461 849 461 1277 
C 461 1449 595 2132 966 2592 
C 1037 2675 1037 2701 1037 2701 
C 1037 2752 973 2752 973 2752 
C 800 2752 314 1820 314 1213 
C 314 498 877 108 1395 -7 
L 1062 -1108 
C 1030 -1206 1030 -1219 1030 -1245 
C 1030 -1402 1197 -1408 1197 -1408 
C 1261 -1408 1376 -1382 1427 -1252 
C 1446 -1193 1626 -182 1651 -52 
C 1690 -58 1754 -64 1869 -64 
C 2918 -64 3885 945 3885 1954 
z
" transform="scale(0.015625)"/>
      </defs>
      <use xlink:href="#LMMathItalic12-Regular-27" transform="scale(0.996264)"/>
     </g>
    </g>
   </g>
   <g id="matplotlib.axis_2">
    <g id="ytick_1">
     <g id="line2d_4">
      <defs>
       <path id="md88eede235" d="M 0 0 
L -3.5 0 
" style="stroke: #000000; stroke-width: 0.8"/>
      </defs>
      <g>
       <use xlink:href="#md88eede235" x="83.631633" y="165.6" style="stroke: #000000; stroke-width: 0.8"/>
      </g>
     </g>
     <g id="text_5">
      <!-- $0.5$ -->
      <g transform="translate(41.08792 175.809981) scale(0.3 -0.3)">
       <defs>
        <path id="LMMathItalic12-Regular-3a" d="M 1178 307 
C 1178 492 1024 620 870 620 
C 685 620 557 467 557 313 
C 557 128 710 0 864 0 
C 1050 0 1178 153 1178 307 
z
" transform="scale(0.015625)"/>
        <path id="LMRoman17-Regular-35" d="M 2669 1260 
C 2669 2028 2170 2624 1549 2624 
C 1222 2624 947 2502 730 2271 
L 730 3692 
C 794 3667 1056 3584 1325 3584 
C 1920 3584 2246 3904 2432 4119 
C 2432 4183 2432 4224 2394 4224 
C 2394 4224 2374 4224 2323 4191 
C 2099 4071 1837 3974 1517 3974 
C 1325 3993 1037 4019 723 4160 
C 653 4224 634 4224 634 4224 
C 602 4192 595 4185 595 4057 
L 595 2206 
C 595 2092 595 2061 659 2061 
C 691 2061 704 2074 736 2118 
C 941 2401 1222 2521 1542 2521 
C 1766 2521 2246 2382 2246 1304 
C 2246 1103 2246 735 2054 441 
C 1894 166 1645 25 1370 25 
C 947 25 518 334 403 832 
C 429 806 480 793 506 793 
C 589 793 749 838 749 1036 
C 749 1209 627 1280 506 1280 
C 358 1280 262 1190 262 1011 
C 262 454 704 -128 1382 -128 
C 2042 -128 2669 441 2669 1267 
L 2669 1260 
z
" transform="scale(0.015625)"/>
       </defs>
       <use xlink:href="#LMRoman17-Regular-30" transform="scale(0.996264)"/>
       <use xlink:href="#LMMathItalic12-Regular-3a" transform="translate(45.690948 0) scale(0.996264)"/>
       <use xlink:href="#LMRoman17-Regular-35" transform="translate(72.788125 0) scale(0.996264)"/>
      </g>
     </g>
    </g>
    <g id="ytick_2">
     <g id="line2d_5">
      <g>
       <use xlink:href="#md88eede235" x="83.631633" y="102.24" style="stroke: #000000; stroke-width: 0.8"/>
      </g>
     </g>
     <g id="text_6">
      <!-- $1$ -->
      <g transform="translate(62.924353 112.449981) scale(0.3 -0.3)">
       <defs>
        <path id="LMRoman17-Regular-31" d="M 2458 0 
L 2458 166 
L 2266 166 
C 1715 166 1702 236 1702 467 
L 1702 4085 
C 1702 4217 1696 4224 1606 4224 
C 1357 3927 979 3833 621 3820 
C 602 3820 570 3820 563 3808 
C 557 3795 557 3782 557 3648 
C 755 3648 1088 3686 1344 3839 
L 1344 467 
C 1344 243 1331 166 781 166 
L 589 166 
L 589 0 
L 1523 12 
L 2458 0 
z
" transform="scale(0.015625)"/>
       </defs>
       <use xlink:href="#LMRoman17-Regular-31" transform="scale(0.996264)"/>
      </g>
     </g>
    </g>
    <g id="ytick_3">
     <g id="line2d_6">
      <g>
       <use xlink:href="#md88eede235" x="83.631633" y="38.88" style="stroke: #000000; stroke-width: 0.8"/>
      </g>
     </g>
     <g id="text_7">
      <!-- $1.5$ -->
      <g transform="translate(41.08792 49.089981) scale(0.3 -0.3)">
       <use xlink:href="#LMRoman17-Regular-31" transform="scale(0.996264)"/>
       <use xlink:href="#LMMathItalic12-Regular-3a" transform="translate(45.690948 0) scale(0.996264)"/>
       <use xlink:href="#LMRoman17-Regular-35" transform="translate(72.788125 0) scale(0.996264)"/>
      </g>
     </g>
    </g>
    <g id="text_8">
     <!-- $\eta/g$ -->
     <g transform="translate(29.61594 140.158438) rotate(-90) scale(0.3 -0.3)">
      <defs>
       <path id="LMMathItalic12-Regular-11" d="M 3040 1768 
C 3072 1896 3091 1973 3091 2145 
C 3091 2528 2867 2816 2381 2816 
C 1811 2816 1510 2413 1395 2253 
C 1376 2617 1114 2816 832 2816 
C 646 2816 499 2726 378 2483 
C 262 2253 173 1864 173 1838 
C 173 1813 198 1781 243 1781 
C 294 1781 301 1787 339 1934 
C 435 2311 557 2688 813 2688 
C 960 2688 1011 2586 1011 2394 
C 1011 2253 947 2004 902 1807 
L 723 1117 
L 595 593 
C 550 427 480 127 480 95 
C 480 6 550 -64 646 -64 
C 723 -64 813 -26 864 70 
C 877 102 934 325 966 453 
L 1107 1028 
L 1318 1870 
C 1331 1909 1491 2228 1728 2432 
C 1894 2586 2112 2688 2362 2688 
C 2618 2688 2707 2496 2707 2241 
C 2707 2056 2682 1953 2650 1832 
L 1907 -1133 
C 1901 -1166 1888 -1205 1888 -1245 
C 1888 -1343 1965 -1408 2061 -1408 
C 2118 -1408 2253 -1382 2304 -1186 
L 3040 1768 
z
" transform="scale(0.015625)"/>
       <path id="LMMathItalic12-Regular-3d" d="M 2784 4678 
C 2784 4755 2720 4800 2669 4800 
C 2637 4800 2579 4800 2528 4659 
L 384 -1364 
L 346 -1479 
C 346 -1556 410 -1600 461 -1600 
C 499 -1600 557 -1594 602 -1460 
L 2746 4563 
L 2784 4678 
z
" transform="scale(0.015625)"/>
       <path id="LMMathItalic12-Regular-67" d="M 2163 811 
C 2138 709 2125 683 2042 587 
C 1779 249 1510 128 1312 128 
C 1101 128 902 294 902 734 
C 902 1072 1094 1788 1235 2075 
C 1421 2432 1709 2688 1978 2688 
C 2400 2688 2483 2164 2483 2126 
L 2464 2037 
L 2163 811 
z
M 2259 -421 
L 2970 2432 
C 2989 2509 2989 2535 2989 2535 
C 2989 2624 2918 2694 2822 2694 
C 2669 2694 2579 2566 2560 2394 
C 2477 2579 2298 2816 1978 2816 
C 1280 2816 486 1941 486 989 
C 486 325 890 0 1299 0 
C 1638 0 1939 268 2054 396 
C 1946 -32 1946 -44 1914 -176 
C 1824 -521 1786 -678 1555 -898 
C 1293 -1155 1050 -1155 909 -1155 
C 717 -1155 557 -1142 397 -1092 
C 602 -1036 653 -860 653 -791 
C 653 -691 576 -590 435 -590 
C 282 -590 115 -716 115 -923 
C 115 -1180 378 -1280 922 -1280 
C 1747 -1280 2176 -760 2259 -421 
z
" transform="scale(0.015625)"/>
      </defs>
      <use xlink:href="#LMMathItalic12-Regular-11" transform="scale(0.996264)"/>
      <use xlink:href="#LMMathItalic12-Regular-3d" transform="translate(51.703816 0) scale(0.996264)"/>
      <use xlink:href="#LMMathItalic12-Regular-67" transform="translate(100.478735 0) scale(0.996264)"/>
     </g>
    </g>
   </g>
   <g id="line2d_7">
    <path d="M 83.631633 260.64 
L 86.979633 254.36736 
L 90.327633 248.22144 
L 93.675633 242.20224 
L 97.023633 236.30976 
L 100.371633 230.544 
L 103.719633 224.90496 
L 107.067633 219.39264 
L 110.415633 214.00704 
L 113.763633 208.74816 
L 117.111633 203.616 
L 120.459633 198.61056 
L 123.807633 193.73184 
L 127.155633 188.97984 
L 130.503633 184.35456 
L 133.851633 179.856 
L 137.199633 175.48416 
L 140.547633 171.23904 
L 143.895633 167.12064 
L 147.243633 163.12896 
L 150.591633 159.264 
L 153.939633 155.52576 
L 157.287633 151.91424 
L 160.635633 148.42944 
L 163.983633 145.07136 
L 167.331633 141.84 
L 170.679633 138.73536 
L 174.027633 135.75744 
L 177.375633 132.90624 
L 180.723633 130.18176 
L 184.071633 127.584 
L 187.419633 125.11296 
L 190.767633 122.76864 
L 194.115633 120.55104 
L 197.463633 118.46016 
L 200.811633 116.496 
L 204.159633 114.65856 
L 207.507633 112.94784 
L 210.855633 111.36384 
L 214.203633 109.90656 
L 217.551633 108.576 
L 220.899633 107.37216 
L 224.247633 106.29504 
L 227.595633 105.34464 
L 230.943633 104.52096 
L 234.291633 103.824 
L 237.639633 103.25376 
L 240.987633 102.81024 
L 244.335633 102.49344 
L 247.683633 102.30336 
L 251.031633 102.24 
L 254.379633 102.30336 
L 257.727633 102.49344 
L 261.075633 102.81024 
L 264.423633 103.25376 
L 267.771633 103.824 
L 271.119633 104.52096 
L 274.467633 105.34464 
L 277.815633 106.29504 
L 281.163633 107.37216 
L 284.511633 108.576 
L 287.859633 109.90656 
L 291.207633 111.36384 
L 294.555633 112.94784 
L 297.903633 114.65856 
L 301.251633 116.496 
L 304.599633 118.46016 
L 307.947633 120.55104 
L 311.295633 122.76864 
L 314.643633 125.11296 
L 317.991633 127.584 
L 321.339633 130.18176 
L 324.687633 132.90624 
L 328.035633 135.75744 
L 331.383633 138.73536 
L 334.731633 141.84 
L 338.079633 145.07136 
L 341.427633 148.42944 
L 344.775633 151.91424 
L 348.123633 155.52576 
L 351.471633 159.264 
L 354.819633 163.12896 
L 358.167633 167.12064 
L 361.515633 171.23904 
L 364.863633 175.48416 
L 368.211633 179.856 
L 371.559633 184.35456 
L 374.907633 188.97984 
L 378.255633 193.73184 
L 381.603633 198.61056 
L 384.951633 203.616 
L 388.299633 208.74816 
L 391.647633 214.00704 
L 394.995633 219.39264 
L 398.343633 224.90496 
L 401.691633 230.544 
L 405.039633 236.30976 
L 408.387633 242.20224 
L 411.735633 248.22144 
L 415.083633 254.36736 
L 418.431633 260.64 
" clip-path="url(#pb27650775b)" style="fill: none; stroke: #a56267; stroke-width: 4; stroke-linecap: square"/>
   </g>
   <g id="patch_3">
    <path d="M 83.631633 228.96 
L 83.631633 7.2 
" style="fill: none; stroke: #000000; stroke-width: 0.8; stroke-linejoin: miter; stroke-linecap: square"/>
   </g>
   <g id="patch_4">
    <path d="M 418.431633 228.96 
L 418.431633 7.2 
" style="fill: none; stroke: #000000; stroke-width: 0.8; stroke-linejoin: miter; stroke-linecap: square"/>
   </g>
   <g id="patch_5">
    <path d="M 83.631633 228.96 
L 418.431633 228.96 
" style="fill: none; stroke: #000000; stroke-width: 0.8; stroke-linejoin: miter; stroke-linecap: square"/>
   </g>
   <g id="patch_6">
    <path d="M 83.631633 7.2 
L 418.431633 7.2 
" style="fill: none; stroke: #000000; stroke-width: 0.8; stroke-linejoin: miter; stroke-linecap: square"/>
   </g>
   <g id="text_9">
    <!-- MP -->
    <g transform="translate(227.595633 171.763961) scale(0.3 -0.3)">
     <defs>
      <path id="LMRoman17-Regular-4d" d="M 5094 0 
L 5094 166 
C 4653 166 4582 166 4582 453 
L 4582 3898 
C 4582 4185 4653 4185 5094 4185 
L 5094 4352 
L 4282 4352 
C 4147 4352 4141 4345 4102 4249 
L 2720 516 
L 1338 4249 
C 1299 4345 1293 4352 1158 4352 
L 339 4352 
L 339 4185 
C 781 4185 851 4185 851 3898 
L 851 624 
C 851 465 851 166 339 166 
L 339 0 
C 486 12 755 12 915 12 
C 1075 12 1344 12 1491 0 
L 1491 166 
C 979 166 979 465 979 624 
L 979 4159 
L 986 4159 
L 2490 102 
C 2515 38 2528 0 2579 0 
C 2630 0 2643 38 2669 102 
L 4186 4191 
L 4192 4191 
L 4192 453 
C 4192 166 4122 166 3680 166 
L 3680 0 
C 3853 12 4198 12 4384 12 
C 4570 12 4922 12 5094 0 
z
" transform="scale(0.015625)"/>
      <path id="LMRoman17-Regular-50" d="M 3718 3187 
C 3718 3791 3130 4352 2291 4352 
L 333 4352 
L 333 4185 
C 774 4185 845 4185 845 3899 
L 845 453 
C 845 166 774 166 333 166 
L 333 0 
C 518 12 858 12 1056 12 
C 1254 12 1594 12 1779 0 
L 1779 166 
C 1338 166 1267 166 1267 453 
L 1267 2048 
L 2291 2048 
C 3117 2048 3718 2583 3718 3187 
z
M 3232 3187 
C 3232 2608 2950 2182 2170 2182 
L 1254 2182 
L 1254 3937 
C 1254 4153 1267 4185 1523 4185 
L 2170 4185 
C 2995 4185 3232 3715 3232 3187 
z
" transform="scale(0.015625)"/>
     </defs>
     <use xlink:href="#LMRoman17-Regular-4d" transform="scale(0.996264)"/>
     <use xlink:href="#LMRoman17-Regular-50" transform="translate(84.682471 0) scale(0.996264)"/>
    </g>
   </g>
   <g id="text_10">
    <!-- NSS -->
    <g transform="translate(227.595633 71.971961) scale(0.3 -0.3)">
     <defs>
      <path id="LMRoman17-Regular-4e" d="M 4102 4185 
L 4102 4352 
C 3955 4339 3686 4339 3526 4339 
C 3366 4339 3098 4339 2950 4352 
L 2950 4185 
C 3462 4185 3462 3885 3462 3726 
L 3462 777 
L 1312 4275 
C 1267 4345 1261 4352 1139 4352 
L 326 4352 
L 326 4185 
L 448 4185 
C 704 4185 819 4153 838 4147 
L 838 624 
C 838 465 838 166 326 166 
L 326 0 
C 474 12 742 12 902 12 
C 1062 12 1331 12 1478 0 
L 1478 166 
C 966 166 966 465 966 624 
L 966 4057 
C 1011 4019 1011 4007 1056 3943 
L 3430 76 
C 3475 0 3494 0 3526 0 
C 3590 0 3590 19 3590 140 
L 3590 3726 
C 3590 3885 3590 4185 4102 4185 
z
" transform="scale(0.015625)"/>
      <path id="LMRoman17-Regular-53" d="M 2970 1141 
C 2970 1476 2848 1734 2778 1850 
C 2509 2263 2221 2340 1914 2417 
C 1869 2437 1856 2437 1498 2527 
C 1152 2617 1005 2662 845 2836 
C 666 3036 602 3243 602 3449 
C 602 3868 934 4326 1478 4326 
C 2157 4326 2579 3842 2675 3036 
C 2694 2920 2701 2914 2746 2914 
C 2803 2914 2803 2933 2803 3043 
L 2803 4351 
C 2803 4467 2797 4473 2758 4473 
C 2720 4473 2707 4447 2682 4390 
L 2490 3965 
C 2246 4320 1875 4480 1472 4480 
C 819 4480 294 3958 294 3301 
C 294 3101 339 2817 557 2546 
C 794 2250 1018 2198 1530 2063 
C 1722 2011 2042 1927 2106 1901 
C 2470 1747 2662 1360 2662 999 
C 2662 534 2336 38 1779 38 
C 1094 38 454 425 410 1328 
C 403 1431 397 1437 352 1437 
C 301 1437 294 1431 294 1302 
L 294 0 
C 294 -116 301 -122 339 -122 
C 384 -122 397 -90 486 109 
C 493 128 493 141 614 386 
C 934 -39 1472 -128 1779 -128 
C 2477 -128 2970 457 2970 1141 
z
" transform="scale(0.015625)"/>
     </defs>
     <use xlink:href="#LMRoman17-Regular-4e" transform="scale(0.996264)"/>
     <use xlink:href="#LMRoman17-Regular-53" transform="translate(69.069678 0) scale(0.996264)"/>
     <use xlink:href="#LMRoman17-Regular-53" transform="translate(119.966766 0) scale(0.996264)"/>
    </g>
   </g>
  </g>
 </g>
 <defs>
  <clipPath id="pb27650775b">
   <rect x="83.631633" y="7.2" width="334.8" height="221.76"/>
  </clipPath>
 </defs>
</svg>
