<?xml version="1.0" encoding="utf-8" standalone="no"?>
<!DOCTYPE svg PUBLIC "-//W3C//DTD SVG 1.1//EN"
  "http://www.w3.org/Graphics/SVG/1.1/DTD/svg11.dtd">
<svg xmlns:xlink="http://www.w3.org/1999/xlink" width="1055.52pt" height="335.52pt" viewBox="0 0 1055.52 335.52" xmlns="http://www.w3.org/2000/svg" version="1.1">
 <metadata>
  <rdf:RDF xmlns:dc="http://purl.org/dc/elements/1.1/" xmlns:cc="http://creativecommons.org/ns#" xmlns:rdf="http://www.w3.org/1999/02/22-rdf-syntax-ns#">
   <cc:Work>
    <dc:type rdf:resource="http://purl.org/dc/dcmitype/StillImage"/>
    <dc:date>2025-06-11T13:20:06.837238</dc:date>
    <dc:format>image/svg+xml</dc:format>
    <dc:creator>
     <cc:Agent>
      <dc:title>Matplotlib v3.10.1, https://matplotlib.org/</dc:title>
     </cc:Agent>
    </dc:creator>
   </cc:Work>
  </rdf:RDF>
 </metadata>
 <defs>
  <style type="text/css">*{stroke-linejoin: round; stroke-linecap: butt}</style>
 </defs>
 <g id="figure_1">
  <g id="patch_1">
   <path d="M 0 335.52 
L 1055.52 335.52 
L 1055.52 0 
L 0 0 
z
" style="fill: #ffffff"/>
  </g>
  <g id="axes_1">
   <g id="patch_2">
    <path d="M 66.219269 266.498268 
L 324.574257 266.498268 
L 324.574257 15.367986 
L 66.219269 15.367986 
z
" style="fill: #ffffff"/>
   </g>
   <g id="PathCollection_1">
    <defs>
     <path id="md4a7c63121" d="M 0 5 
C 1.326016 5 2.597899 4.473168 3.535534 3.535534 
C 4.473168 2.597899 5 1.326016 5 0 
C 5 -1.326016 4.473168 -2.597899 3.535534 -3.535534 
C 2.597899 -4.473168 1.326016 -5 0 -5 
C -1.326016 -5 -2.597899 -4.473168 -3.535534 -3.535534 
C -4.473168 -2.597899 -5 -1.326016 -5 0 
C -5 1.326016 -4.473168 2.597899 -3.535534 3.535534 
C -2.597899 4.473168 -1.326016 5 0 5 
z
" style="stroke: #000000"/>
    </defs>
    <g clip-path="url(#pdd7e61b6ba)">
     <use xlink:href="#md4a7c63121" x="322.574972" y="193.52973" style="stroke: #000000"/>
     <use xlink:href="#md4a7c63121" x="322.441473" y="88.336524" style="stroke: #000000"/>
     <use xlink:href="#md4a7c63121" x="322.439452" y="-1" style="stroke: #000000"/>
     <use xlink:href="#md4a7c63121" x="322.439093" y="-1" style="stroke: #000000"/>
     <use xlink:href="#md4a7c63121" x="322.439092" y="246.126333" style="stroke: #000000"/>
     <use xlink:href="#md4a7c63121" x="322.439092" y="-1" style="stroke: #000000"/>
     <use xlink:href="#md4a7c63121" x="322.439092" y="-1" style="stroke: #000000"/>
     <use xlink:href="#md4a7c63121" x="322.439092" y="351.31954" style="stroke: #000000"/>
     <use xlink:href="#md4a7c63121" x="322.439092" y="298.722936" style="stroke: #000000"/>
     <use xlink:href="#md4a7c63121" x="322.439092" y="-1" style="stroke: #000000"/>
     <use xlink:href="#md4a7c63121" x="322.439092" y="-1" style="stroke: #000000"/>
     <use xlink:href="#md4a7c63121" x="322.439092" y="35.739921" style="stroke: #000000"/>
     <use xlink:href="#md4a7c63121" x="322.439058" y="298.722936" style="stroke: #000000"/>
     <use xlink:href="#md4a7c63121" x="319.326598" y="-1" style="stroke: #000000"/>
    </g>
   </g>
   <g id="matplotlib.axis_1">
    <g id="xtick_1">
     <g id="line2d_1">
      <defs>
       <path id="mae8ed89b47" d="M 0 0 
L 0 3.5 
" style="stroke: #000000; stroke-width: 0.8"/>
      </defs>
      <g>
       <use xlink:href="#mae8ed89b47" x="322.439092" y="266.498268" style="stroke: #000000; stroke-width: 0.8"/>
      </g>
     </g>
     <g id="text_1">
      <!-- $\mathdefault{0}$ -->
      <g transform="translate(316.956182 289.83424) scale(0.24 -0.24)">
       <defs>
        <path id="LMRoman17-Regular-30" d="M 2688 2038 
C 2688 2430 2682 3099 2413 3613 
C 2176 4063 1798 4224 1466 4224 
C 1158 4224 768 4082 525 3620 
C 269 3137 243 2539 243 2038 
C 243 1671 250 1112 448 623 
C 723 -39 1216 -128 1466 -128 
C 1760 -128 2208 -7 2470 604 
C 2662 1048 2688 1568 2688 2038 
z
M 2278 2109 
C 2278 1691 2278 1176 2202 797 
C 2067 96 1690 -26 1466 -26 
C 1056 -26 813 328 723 816 
C 653 1196 653 1749 653 2109 
C 653 2604 653 3015 736 3407 
C 858 3954 1216 4121 1466 4121 
C 1728 4121 2067 3947 2189 3420 
C 2272 3054 2278 2623 2278 2109 
z
" transform="scale(0.015625)"/>
       </defs>
       <use xlink:href="#LMRoman17-Regular-30" transform="scale(0.996264)"/>
      </g>
     </g>
    </g>
    <g id="xtick_2">
     <g id="line2d_2">
      <g>
       <use xlink:href="#mae8ed89b47" x="108.922573" y="266.498268" style="stroke: #000000; stroke-width: 0.8"/>
      </g>
     </g>
     <g id="text_2">
      <!-- $\mathdefault{−1}$ -->
      <g transform="translate(94.141165 289.83424) scale(0.24 -0.24)">
       <defs>
        <path id="LMMathSymbols10-Regular-0" d="M 4442 1600 
C 4442 1728 4320 1728 4230 1728 
L 742 1728 
C 653 1728 531 1728 531 1600 
C 531 1472 653 1472 742 1472 
L 4230 1472 
C 4320 1472 4442 1472 4442 1600 
z
" transform="scale(0.015625)"/>
        <path id="LMRoman17-Regular-31" d="M 2458 0 
L 2458 166 
L 2266 166 
C 1715 166 1702 236 1702 467 
L 1702 4085 
C 1702 4217 1696 4224 1606 4224 
C 1357 3927 979 3833 621 3820 
C 602 3820 570 3820 563 3808 
C 557 3795 557 3782 557 3648 
C 755 3648 1088 3686 1344 3839 
L 1344 467 
C 1344 243 1331 166 781 166 
L 589 166 
L 589 0 
L 1523 12 
L 2458 0 
z
" transform="scale(0.015625)"/>
       </defs>
       <use xlink:href="#LMMathSymbols10-Regular-0" transform="scale(0.996264)"/>
       <use xlink:href="#LMRoman17-Regular-31" transform="translate(77.487468 0) scale(0.996264)"/>
      </g>
     </g>
    </g>
    <g id="text_3">
     <!-- Re($\lambda$) -->
     <g transform="translate(160.035517 320.873103) scale(0.3 -0.3)">
      <defs>
       <path id="LMRoman17-Regular-52" d="M 4365 531 
C 4365 569 4365 614 4307 614 
C 4256 614 4250 576 4250 550 
C 4218 140 4032 0 3834 0 
C 3482 0 3443 397 3405 787 
C 3386 921 3373 1017 3360 1158 
C 3322 1482 3270 1951 2509 2182 
C 3117 2303 3629 2709 3629 3216 
C 3629 3811 2950 4352 2054 4352 
L 333 4352 
L 333 4185 
C 774 4185 845 4185 845 3900 
L 845 448 
C 845 166 774 166 333 166 
L 333 0 
C 518 12 851 12 1050 12 
C 1248 12 1581 12 1766 0 
L 1766 166 
C 1325 166 1254 166 1254 448 
L 1254 2137 
L 2003 2137 
C 2368 2137 2573 1989 2662 1906 
C 2918 1655 2918 1482 2918 1045 
C 2918 614 2918 397 3110 185 
C 3354 -103 3680 -128 3821 -128 
C 4294 -103 4365 428 4365 537 
L 4365 531 
z
M 3142 3216 
C 3142 2398 2464 2240 1984 2240 
L 1254 2240 
L 1254 3938 
C 1254 4154 1267 4185 1523 4185 
L 1990 4185 
C 2522 4185 3142 4001 3142 3216 
z
" transform="scale(0.015625)"/>
       <path id="LMRoman17-Regular-65" d="M 2464 1606 
C 2464 2251 2118 2816 1389 2816 
C 710 2816 173 2175 173 1394 
C 173 554 781 -64 1459 -64 
C 2176 -64 2458 619 2458 755 
C 2458 800 2406 800 2406 800 
C 2362 800 2355 787 2330 709 
C 2189 270 1837 51 1504 51 
C 1229 51 954 206 781 490 
C 582 819 582 1200 582 1503 
L 2438 1503 
C 2464 1523 2464 1535 2464 1600 
L 2464 1606 
z
M 2118 1593 
L 589 1600 
C 634 2511 1126 2713 1382 2713 
C 1818 2713 2112 2308 2118 1600 
L 2118 1593 
z
" transform="scale(0.015625)"/>
       <path id="LMRoman17-Regular-28" d="M 1958 -1562 
C 1958 -1562 1958 -1543 1939 -1524 
C 1645 -1223 858 -403 858 1596 
C 858 3595 1632 4409 1946 4729 
C 1946 4729 1958 4748 1958 4767 
C 1958 4787 1939 4800 1914 4800 
C 1843 4800 1299 4325 986 3621 
C 666 2910 576 2218 576 1603 
C 576 1141 621 360 1005 -467 
C 1312 -1133 1837 -1600 1914 -1600 
C 1946 -1600 1958 -1588 1958 -1562 
z
" transform="scale(0.015625)"/>
       <path id="LMMathItalic12-Regular-15" d="M 3424 -14 
C 3424 12 3418 18 3392 44 
C 3334 114 3290 228 3264 305 
L 1978 3963 
C 1818 4416 1312 4416 1229 4416 
C 1190 4416 1120 4416 1120 4352 
C 1120 4301 1158 4294 1190 4288 
C 1286 4275 1363 4263 1466 4078 
C 1530 3957 2189 2042 2189 2042 
C 2189 2042 2182 2029 2131 1978 
L 467 305 
C 390 228 339 177 339 95 
C 339 5 416 -71 518 -71 
C 544 -71 614 -58 653 -20 
C 755 75 1670 1189 2253 1876 
L 2822 260 
C 2854 165 2886 75 2976 -7 
C 3040 -64 3053 -64 3232 -64 
L 3354 -64 
C 3379 -64 3424 -64 3424 -14 
z
" transform="scale(0.015625)"/>
       <path id="LMRoman17-Regular-29" d="M 1683 1596 
C 1683 2057 1638 2839 1254 3665 
C 947 4332 422 4800 346 4800 
C 326 4800 301 4793 301 4761 
C 301 4761 307 4742 314 4729 
C 621 4409 1402 3595 1402 1603 
C 1402 -396 627 -1210 314 -1530 
C 307 -1543 301 -1562 301 -1562 
C 301 -1594 326 -1600 346 -1600 
C 416 -1600 960 -1126 1274 -422 
C 1594 289 1683 981 1683 1596 
z
" transform="scale(0.015625)"/>
      </defs>
      <use xlink:href="#LMRoman17-Regular-52" transform="scale(0.996264)"/>
      <use xlink:href="#LMRoman17-Regular-65" transform="translate(67.789779 0) scale(0.996264)"/>
      <use xlink:href="#LMRoman17-Regular-28" transform="translate(108.274589 0) scale(0.996264)"/>
      <use xlink:href="#LMMathItalic12-Regular-15" transform="translate(143.556116 0) scale(0.996264)"/>
      <use xlink:href="#LMRoman17-Regular-29" transform="translate(200.460188 0) scale(0.996264)"/>
     </g>
    </g>
    <g id="text_4">
     <!-- $\times\mathdefault{10^{−6}}\mathdefault{}$ -->
     <g transform="translate(261.578056 314.948242) scale(0.24 -0.24)">
      <defs>
       <path id="LMMathSymbols10-Regular-2" d="M 4032 185 
C 4032 236 4019 249 3949 320 
L 2675 1600 
L 3949 2880 
C 4019 2950 4032 2963 4032 3014 
C 4032 3084 3974 3142 3904 3142 
C 3853 3142 3827 3116 3770 3059 
L 2490 1779 
L 1203 3059 
C 1133 3129 1120 3142 1069 3142 
C 1005 3142 941 3084 941 3014 
C 941 2963 966 2937 1024 2880 
L 2298 1600 
L 1024 326 
C 960 262 941 224 941 185 
C 941 115 1005 57 1069 57 
C 1120 57 1133 70 1203 140 
L 2483 1420 
L 3763 140 
C 3827 76 3866 57 3904 57 
C 3981 57 4032 115 4032 185 
z
" transform="scale(0.015625)"/>
       <path id="LMRoman17-Regular-36" d="M 2688 1305 
C 2688 2105 2170 2688 1517 2688 
C 1126 2688 838 2431 678 1983 
L 678 2201 
C 678 3712 1395 4076 1811 4076 
C 1946 4076 2272 4049 2400 3782 
C 2298 3782 2106 3782 2106 3558 
C 2106 3385 2246 3328 2336 3328 
C 2394 3328 2566 3353 2566 3571 
C 2566 3993 2246 4224 1805 4224 
C 1043 4224 243 3427 243 2006 
C 243 257 966 -128 1478 -128 
C 2099 -135 2688 422 2688 1280 
L 2688 1305 
z
M 2253 1286 
C 2253 937 2253 684 2118 431 
C 1978 171 1773 25 1478 25 
C 691 25 691 1191 691 1427 
C 691 1901 909 2585 1504 2585 
C 1613 2585 1926 2585 2138 2131 
C 2253 1862 2253 1600 2253 1280 
L 2253 1286 
z
" transform="scale(0.015625)"/>
      </defs>
      <use xlink:href="#LMMathSymbols10-Regular-2" transform="scale(0.996264)"/>
      <use xlink:href="#LMRoman17-Regular-31" transform="translate(77.487468 0) scale(0.996264)"/>
      <use xlink:href="#LMRoman17-Regular-30" transform="translate(123.178416 0) scale(0.996264)"/>
      <use xlink:href="#LMMathSymbols10-Regular-0" transform="translate(168.869364 36.153639) scale(0.757155)"/>
      <use xlink:href="#LMRoman17-Regular-36" transform="translate(227.759412 36.153639) scale(0.757155)"/>
     </g>
    </g>
   </g>
   <g id="matplotlib.axis_2">
    <g id="ytick_1">
     <g id="line2d_3">
      <defs>
       <path id="mdc0198696b" d="M 0 0 
L -3.5 0 
" style="stroke: #000000; stroke-width: 0.8"/>
      </defs>
      <g>
       <use xlink:href="#mdc0198696b" x="66.219269" y="224.643221" style="stroke: #000000; stroke-width: 0.8"/>
      </g>
     </g>
     <g id="text_5">
      <!-- -1 -->
      <g transform="translate(41.035155 232.811207) scale(0.24 -0.24)">
       <defs>
        <path id="LMRoman17-Regular-2d" d="M 1632 1254 
L 1632 1536 
L 26 1536 
L 26 1254 
L 1632 1254 
z
" transform="scale(0.015625)"/>
       </defs>
       <use xlink:href="#LMRoman17-Regular-2d" transform="scale(0.996264)"/>
       <use xlink:href="#LMRoman17-Regular-31" transform="translate(30.07624 0) scale(0.996264)"/>
      </g>
     </g>
    </g>
    <g id="ytick_2">
     <g id="line2d_4">
      <g>
       <use xlink:href="#mdc0198696b" x="66.219269" y="140.933127" style="stroke: #000000; stroke-width: 0.8"/>
      </g>
     </g>
     <g id="text_6">
      <!-- 0 -->
      <g transform="translate(48.253448 149.101113) scale(0.24 -0.24)">
       <use xlink:href="#LMRoman17-Regular-30" transform="scale(0.996264)"/>
      </g>
     </g>
    </g>
    <g id="ytick_3">
     <g id="line2d_5">
      <g>
       <use xlink:href="#mdc0198696b" x="66.219269" y="57.223033" style="stroke: #000000; stroke-width: 0.8"/>
      </g>
     </g>
     <g id="text_7">
      <!-- 1 -->
      <g transform="translate(48.253448 65.391019) scale(0.24 -0.24)">
       <use xlink:href="#LMRoman17-Regular-31" transform="scale(0.996264)"/>
      </g>
     </g>
    </g>
    <g id="text_8">
     <!-- Im($\lambda$) -->
     <g transform="translate(29.588258 176.487215) rotate(-90) scale(0.3 -0.3)">
      <defs>
       <path id="LMRoman17-Regular-49" d="M 1798 0 
L 1798 166 
C 1338 166 1261 166 1261 453 
L 1261 3898 
C 1261 4185 1338 4185 1798 4185 
L 1798 4352 
C 1594 4339 1267 4339 1050 4339 
C 832 4339 506 4339 301 4352 
L 301 4185 
C 762 4185 838 4185 838 3898 
L 838 453 
C 838 166 762 166 301 166 
L 301 0 
C 506 12 832 12 1050 12 
C 1267 12 1594 12 1798 0 
z
" transform="scale(0.015625)"/>
       <path id="LMRoman17-Regular-6d" d="M 4762 0 
L 4762 166 
C 4352 166 4326 192 4326 443 
L 4326 1954 
C 4326 2276 4269 2816 3507 2816 
C 3072 2816 2771 2520 2656 2173 
L 2650 2173 
C 2573 2700 2195 2816 1837 2816 
C 1331 2816 1069 2424 973 2166 
L 966 2166 
L 966 2816 
L 211 2752 
L 211 2585 
C 589 2585 646 2546 646 2237 
L 646 443 
C 646 198 621 166 211 166 
L 211 0 
C 365 12 646 12 813 12 
C 979 12 1267 12 1421 0 
L 1421 166 
C 1011 166 986 192 986 443 
L 986 1682 
C 986 2269 1344 2713 1792 2713 
C 2266 2713 2317 2289 2317 1980 
L 2317 443 
C 2317 198 2291 166 1882 166 
L 1882 0 
C 2035 12 2317 12 2483 12 
C 2650 12 2938 12 3091 0 
L 3091 166 
C 2682 166 2656 192 2656 443 
L 2656 1678 
C 2656 2269 3014 2713 3462 2713 
C 3936 2713 3987 2289 3987 1980 
L 3987 443 
C 3987 198 3962 166 3552 166 
L 3552 0 
C 3706 12 3987 12 4154 12 
C 4320 12 4608 12 4762 0 
z
" transform="scale(0.015625)"/>
      </defs>
      <use xlink:href="#LMRoman17-Regular-49" transform="scale(0.996264)"/>
      <use xlink:href="#LMRoman17-Regular-6d" transform="translate(32.638029 0) scale(0.996264)"/>
      <use xlink:href="#LMRoman17-Regular-28" transform="translate(109.560188 0) scale(0.996264)"/>
      <use xlink:href="#LMMathItalic12-Regular-15" transform="translate(144.841716 0) scale(0.996264)"/>
      <use xlink:href="#LMRoman17-Regular-29" transform="translate(201.745788 0) scale(0.996264)"/>
     </g>
    </g>
   </g>
   <g id="line2d_6">
    <path d="M 66.219269 140.933127 
L 324.574257 140.933127 
" clip-path="url(#pdd7e61b6ba)" style="fill: none; stroke-dasharray: 2,3.3; stroke-dashoffset: 0; stroke: #000000; stroke-width: 2"/>
   </g>
   <g id="patch_3">
    <path d="M 66.219269 266.498268 
L 66.219269 15.367986 
" style="fill: none; stroke: #000000; stroke-width: 0.8; stroke-linejoin: miter; stroke-linecap: square"/>
   </g>
   <g id="patch_4">
    <path d="M 324.574257 266.498268 
L 324.574257 15.367986 
" style="fill: none; stroke: #000000; stroke-width: 0.8; stroke-linejoin: miter; stroke-linecap: square"/>
   </g>
   <g id="patch_5">
    <path d="M 66.219269 266.498268 
L 324.574257 266.498268 
" style="fill: none; stroke: #000000; stroke-width: 0.8; stroke-linejoin: miter; stroke-linecap: square"/>
   </g>
   <g id="patch_6">
    <path d="M 66.219269 15.367986 
L 324.574257 15.367986 
" style="fill: none; stroke: #000000; stroke-width: 0.8; stroke-linejoin: miter; stroke-linecap: square"/>
   </g>
   <g id="text_9">
    <g id="patch_7">
     <path d="M 92.054767 220.772211 
L 201.10147 220.772211 
Q 205.60147 220.772211 205.60147 216.272211 
L 205.60147 190.038997 
Q 205.60147 185.538997 201.10147 185.538997 
L 92.054767 185.538997 
Q 87.554767 185.538997 87.554767 190.038997 
L 87.554767 216.272211 
Q 87.554767 220.772211 92.054767 220.772211 
z
" style="fill: #228b22; opacity: 0.75; stroke: #000000; stroke-linejoin: miter"/>
    </g>
    <!-- $\mathrm{\Delta_1}=\mathrm{\Delta_2}$ -->
    <g transform="translate(92.054767 210.458959) scale(0.3 -0.3)">
     <defs>
      <path id="LMRoman17-Regular-1" d="M 4698 32 
C 4698 32 4672 96 4666 108 
L 2598 4434 
C 2547 4544 2522 4544 2470 4544 
C 2394 4544 2387 4531 2342 4441 
L 269 108 
C 262 96 237 32 237 32 
C 237 6 243 0 358 0 
L 4576 0 
C 4691 0 4698 6 4698 32 
z
M 4083 358 
L 531 358 
L 2310 4055 
L 4083 358 
z
" transform="scale(0.015625)"/>
      <path id="CMR10-3d" d="M 4397 2111 
C 4493 2111 4614 2111 4614 2239 
C 4614 2368 4493 2368 4403 2368 
L 570 2368 
C 480 2368 358 2368 358 2239 
C 358 2111 480 2111 576 2111 
L 4397 2111 
z
M 4403 832 
C 4493 832 4614 832 4614 960 
C 4614 1088 4493 1088 4397 1088 
L 576 1088 
C 480 1088 358 1088 358 960 
C 358 832 480 832 570 832 
L 4403 832 
z
" transform="scale(0.015625)"/>
      <path id="LMRoman17-Regular-32" d="M 2669 990 
L 2554 990 
C 2490 537 2438 460 2413 422 
C 2381 371 1920 371 1830 371 
L 602 371 
L 1824 1596 
C 2214 1966 2669 2400 2669 3033 
C 2669 3788 2067 4224 1395 4224 
C 691 4224 262 3603 262 3027 
C 262 2777 448 2745 525 2745 
C 589 2745 781 2783 781 3007 
C 781 3206 614 3264 525 3264 
C 486 3264 448 3257 422 3244 
C 544 3788 915 4057 1306 4057 
C 1862 4057 2227 3616 2227 3033 
C 2227 2477 1901 1998 1536 1583 
L 262 147 
L 262 0 
L 2515 0 
L 2669 990 
z
" transform="scale(0.015625)"/>
     </defs>
     <use xlink:href="#LMRoman17-Regular-1" transform="scale(0.996264)"/>
     <use xlink:href="#LMRoman17-Regular-31" transform="translate(76.922159 -14.943915) scale(0.757155)"/>
     <use xlink:href="#CMR10-3d" transform="translate(141.064468 0) scale(1.038107)"/>
     <use xlink:href="#LMRoman17-Regular-1" transform="translate(250.680173 0) scale(0.996264)"/>
     <use xlink:href="#LMRoman17-Regular-32" transform="translate(327.602332 -14.943915) scale(0.757155)"/>
    </g>
   </g>
   <g id="legend_1">
    <g id="patch_8">
     <path d="M 83.019269 68.018591 
L 207.113443 68.018591 
Q 211.913443 68.018591 211.913443 63.218591 
L 211.913443 32.167986 
Q 211.913443 27.367986 207.113443 27.367986 
L 83.019269 27.367986 
Q 78.219269 27.367986 78.219269 32.167986 
L 78.219269 63.218591 
Q 78.219269 68.018591 83.019269 68.018591 
z
" style="fill: #ffffff; opacity: 0.8; stroke: #cccccc; stroke-linejoin: miter"/>
    </g>
    <g id="PathCollection_2">
     <g>
      <use xlink:href="#md4a7c63121" x="111.819269" y="47.467986" style="stroke: #000000"/>
     </g>
    </g>
    <g id="text_10">
     <!-- Data -->
     <g transform="translate(155.019269 53.767986) scale(0.24 -0.24)">
      <defs>
       <path id="LMRoman17-Regular-44" d="M 4224 2140 
C 4224 3344 3411 4352 2368 4352 
L 333 4352 
L 333 4185 
C 774 4185 845 4185 845 3898 
L 845 453 
C 845 166 774 166 333 166 
L 333 0 
L 2368 0 
C 3398 0 4224 943 4224 2140 
z
M 3750 2140 
C 3750 1242 3488 879 3366 707 
C 3213 510 2848 166 2240 166 
L 1523 166 
C 1267 166 1254 198 1254 414 
L 1254 3936 
C 1254 4153 1267 4185 1523 4185 
L 2240 4185 
C 2771 4185 3750 3873 3750 2140 
z
" transform="scale(0.015625)"/>
       <path id="LMRoman17-Regular-61" d="M 2874 569 
L 2874 928 
L 2758 928 
L 2758 563 
C 2758 172 2586 121 2502 121 
C 2240 121 2240 454 2240 736 
L 2240 1657 
C 2240 2080 2240 2304 1971 2553 
C 1734 2764 1459 2828 1242 2828 
C 736 2828 371 2432 371 2009 
C 371 1772 563 1760 602 1760 
C 685 1760 832 1811 832 1990 
C 832 2150 710 2220 602 2220 
C 576 2220 544 2214 525 2208 
C 659 2611 1005 2726 1229 2726 
C 1549 2726 1901 2444 1901 1907 
L 1901 1625 
C 1523 1612 1069 1561 710 1369 
C 307 1145 192 825 192 582 
C 192 89 768 -52 1107 -52 
C 1459 -52 1786 147 1926 512 
C 1939 230 2118 -26 2400 -26 
C 2534 -26 2874 64 2874 569 
z
M 1901 889 
C 1901 332 1504 51 1152 51 
C 832 51 582 288 582 582 
C 582 774 666 1113 1037 1318 
C 1344 1491 1696 1516 1901 1529 
L 1901 889 
z
" transform="scale(0.015625)"/>
       <path id="LMRoman17-Regular-74" d="M 1965 784 
L 1965 1151 
L 1850 1151 
L 1850 790 
C 1850 347 1677 51 1408 51 
C 1222 51 966 179 966 765 
L 966 2585 
L 1862 2585 
L 1862 2752 
L 966 2752 
L 966 3968 
L 851 3968 
C 838 3291 614 2700 70 2687 
L 70 2585 
L 627 2585 
L 627 778 
C 627 655 627 -64 1370 -64 
C 1747 -64 1965 308 1965 784 
z
" transform="scale(0.015625)"/>
      </defs>
      <use xlink:href="#LMRoman17-Regular-44" transform="scale(0.996264)"/>
      <use xlink:href="#LMRoman17-Regular-61" transform="translate(70.395745 0) scale(0.996264)"/>
      <use xlink:href="#LMRoman17-Regular-74" transform="translate(116.086693 0) scale(0.996264)"/>
      <use xlink:href="#LMRoman17-Regular-61" transform="translate(151.368221 0) scale(0.996264)"/>
     </g>
    </g>
   </g>
  </g>
  <g id="axes_2">
   <g id="patch_9">
    <path d="M 428.09214 266.498268 
L 686.447129 266.498268 
L 686.447129 15.367986 
L 428.09214 15.367986 
z
" style="fill: #ffffff"/>
   </g>
   <g id="PathCollection_3">
    <g clip-path="url(#p3439eb3961)">
     <use xlink:href="#md4a7c63121" x="685.16178" y="140.933127" style="stroke: #000000"/>
     <use xlink:href="#md4a7c63121" x="620.943259" y="193.488091" style="stroke: #000000"/>
     <use xlink:href="#md4a7c63121" x="620.943259" y="193.488091" style="stroke: #000000"/>
     <use xlink:href="#md4a7c63121" x="620.910699" y="193.568028" style="stroke: #000000"/>
     <use xlink:href="#md4a7c63121" x="620.910699" y="193.568028" style="stroke: #000000"/>
     <use xlink:href="#md4a7c63121" x="620.87814" y="88.378163" style="stroke: #000000"/>
     <use xlink:href="#md4a7c63121" x="620.87814" y="88.378163" style="stroke: #000000"/>
     <use xlink:href="#md4a7c63121" x="620.845581" y="88.298225" style="stroke: #000000"/>
     <use xlink:href="#md4a7c63121" x="620.845581" y="88.298225" style="stroke: #000000"/>
     <use xlink:href="#md4a7c63121" x="556.724737" y="246.043055" style="stroke: #000000"/>
     <use xlink:href="#md4a7c63121" x="556.692178" y="246.122992" style="stroke: #000000"/>
     <use xlink:href="#md4a7c63121" x="556.659618" y="246.20293" style="stroke: #000000"/>
     <use xlink:href="#md4a7c63121" x="556.659495" y="35.743263" style="stroke: #000000"/>
     <use xlink:href="#md4a7c63121" x="556.627079" y="141.013064" style="stroke: #000000"/>
     <use xlink:href="#md4a7c63121" x="556.627057" y="140.85319" style="stroke: #000000"/>
     <use xlink:href="#md4a7c63121" x="556.5945" y="35.823199" style="stroke: #000000"/>
    </g>
   </g>
   <g id="matplotlib.axis_3">
    <g id="xtick_3">
     <g id="line2d_7">
      <g>
       <use xlink:href="#mae8ed89b47" x="685.16178" y="266.498268" style="stroke: #000000; stroke-width: 0.8"/>
      </g>
     </g>
     <g id="text_11">
      <!-- $\mathdefault{0.00}$ -->
      <g transform="translate(665.728407 289.83424) scale(0.24 -0.24)">
       <defs>
        <path id="LMRoman17-Regular-2e" d="M 1062 262 
C 1062 422 934 524 800 524 
C 672 524 538 422 538 262 
C 538 102 666 0 800 0 
C 928 0 1062 102 1062 262 
z
" transform="scale(0.015625)"/>
       </defs>
       <use xlink:href="#LMRoman17-Regular-30" transform="scale(0.996264)"/>
       <use xlink:href="#LMRoman17-Regular-2e" transform="translate(45.690948 0) scale(0.996264)"/>
       <use xlink:href="#LMRoman17-Regular-30" transform="translate(70.562965 0) scale(0.996264)"/>
       <use xlink:href="#LMRoman17-Regular-30" transform="translate(116.253913 0) scale(0.996264)"/>
      </g>
     </g>
    </g>
    <g id="xtick_4">
     <g id="line2d_8">
      <g>
       <use xlink:href="#mae8ed89b47" x="556.62696" y="266.498268" style="stroke: #000000; stroke-width: 0.8"/>
      </g>
     </g>
     <g id="text_12">
      <!-- $\mathdefault{−0.01}$ -->
      <g transform="translate(527.89509 289.83424) scale(0.24 -0.24)">
       <use xlink:href="#LMMathSymbols10-Regular-0" transform="scale(0.996264)"/>
       <use xlink:href="#LMRoman17-Regular-30" transform="translate(77.487468 0) scale(0.996264)"/>
       <use xlink:href="#LMRoman17-Regular-2e" transform="translate(123.178416 0) scale(0.996264)"/>
       <use xlink:href="#LMRoman17-Regular-30" transform="translate(148.050432 0) scale(0.996264)"/>
       <use xlink:href="#LMRoman17-Regular-31" transform="translate(193.741381 0) scale(0.996264)"/>
      </g>
     </g>
    </g>
    <g id="xtick_5">
     <g id="line2d_9">
      <g>
       <use xlink:href="#mae8ed89b47" x="428.09214" y="266.498268" style="stroke: #000000; stroke-width: 0.8"/>
      </g>
     </g>
     <g id="text_13">
      <!-- $\mathdefault{−0.02}$ -->
      <g transform="translate(399.36027 289.83424) scale(0.24 -0.24)">
       <use xlink:href="#LMMathSymbols10-Regular-0" transform="scale(0.996264)"/>
       <use xlink:href="#LMRoman17-Regular-30" transform="translate(77.487468 0) scale(0.996264)"/>
       <use xlink:href="#LMRoman17-Regular-2e" transform="translate(123.178416 0) scale(0.996264)"/>
       <use xlink:href="#LMRoman17-Regular-30" transform="translate(148.050432 0) scale(0.996264)"/>
       <use xlink:href="#LMRoman17-Regular-32" transform="translate(193.741381 0) scale(0.996264)"/>
      </g>
     </g>
    </g>
    <g id="text_14">
     <!-- Re($\lambda$) -->
     <g transform="translate(521.908388 320.873103) scale(0.3 -0.3)">
      <use xlink:href="#LMRoman17-Regular-52" transform="scale(0.996264)"/>
      <use xlink:href="#LMRoman17-Regular-65" transform="translate(67.789779 0) scale(0.996264)"/>
      <use xlink:href="#LMRoman17-Regular-28" transform="translate(108.274589 0) scale(0.996264)"/>
      <use xlink:href="#LMMathItalic12-Regular-15" transform="translate(143.556116 0) scale(0.996264)"/>
      <use xlink:href="#LMRoman17-Regular-29" transform="translate(200.460188 0) scale(0.996264)"/>
     </g>
    </g>
   </g>
   <g id="matplotlib.axis_4">
    <g id="ytick_4">
     <g id="line2d_10">
      <g>
       <use xlink:href="#mdc0198696b" x="428.09214" y="224.643221" style="stroke: #000000; stroke-width: 0.8"/>
      </g>
     </g>
     <g id="text_15">
      <!-- -1 -->
      <g transform="translate(402.908026 232.811207) scale(0.24 -0.24)">
       <use xlink:href="#LMRoman17-Regular-2d" transform="scale(0.996264)"/>
       <use xlink:href="#LMRoman17-Regular-31" transform="translate(30.07624 0) scale(0.996264)"/>
      </g>
     </g>
    </g>
    <g id="ytick_5">
     <g id="line2d_11">
      <g>
       <use xlink:href="#mdc0198696b" x="428.09214" y="140.933127" style="stroke: #000000; stroke-width: 0.8"/>
      </g>
     </g>
     <g id="text_16">
      <!-- 0 -->
      <g transform="translate(410.126319 149.101113) scale(0.24 -0.24)">
       <use xlink:href="#LMRoman17-Regular-30" transform="scale(0.996264)"/>
      </g>
     </g>
    </g>
    <g id="ytick_6">
     <g id="line2d_12">
      <g>
       <use xlink:href="#mdc0198696b" x="428.09214" y="57.223033" style="stroke: #000000; stroke-width: 0.8"/>
      </g>
     </g>
     <g id="text_17">
      <!-- 1 -->
      <g transform="translate(410.126319 65.391019) scale(0.24 -0.24)">
       <use xlink:href="#LMRoman17-Regular-31" transform="scale(0.996264)"/>
      </g>
     </g>
    </g>
   </g>
   <g id="line2d_13">
    <path d="M 428.09214 140.933127 
L 686.447129 140.933127 
" clip-path="url(#p3439eb3961)" style="fill: none; stroke-dasharray: 2,3.3; stroke-dashoffset: 0; stroke: #000000; stroke-width: 2"/>
   </g>
   <g id="patch_10">
    <path d="M 428.09214 266.498268 
L 428.09214 15.367986 
" style="fill: none; stroke: #000000; stroke-width: 0.8; stroke-linejoin: miter; stroke-linecap: square"/>
   </g>
   <g id="patch_11">
    <path d="M 686.447129 266.498268 
L 686.447129 15.367986 
" style="fill: none; stroke: #000000; stroke-width: 0.8; stroke-linejoin: miter; stroke-linecap: square"/>
   </g>
   <g id="patch_12">
    <path d="M 428.09214 266.498268 
L 686.447129 266.498268 
" style="fill: none; stroke: #000000; stroke-width: 0.8; stroke-linejoin: miter; stroke-linecap: square"/>
   </g>
   <g id="patch_13">
    <path d="M 428.09214 15.367986 
L 686.447129 15.367986 
" style="fill: none; stroke: #000000; stroke-width: 0.8; stroke-linejoin: miter; stroke-linecap: square"/>
   </g>
   <g id="text_18">
    <g id="patch_14">
     <path d="M 453.927639 220.772211 
L 586.220572 220.772211 
Q 590.720572 220.772211 590.720572 216.272211 
L 590.720572 190.038997 
Q 590.720572 185.538997 586.220572 185.538997 
L 453.927639 185.538997 
Q 449.427639 185.538997 449.427639 190.038997 
L 449.427639 216.272211 
Q 449.427639 220.772211 453.927639 220.772211 
z
" style="fill: #75bbfd; opacity: 0.75; stroke: #000000; stroke-linejoin: miter"/>
    </g>
    <!-- $\mathrm{\Delta_1}=-\mathrm{\Delta_2}$ -->
    <g transform="translate(453.927639 210.458959) scale(0.3 -0.3)">
     <use xlink:href="#LMRoman17-Regular-1" transform="scale(0.996264)"/>
     <use xlink:href="#LMRoman17-Regular-31" transform="translate(76.922159 -14.943915) scale(0.757155)"/>
     <use xlink:href="#CMR10-3d" transform="translate(141.064468 0) scale(1.038107)"/>
     <use xlink:href="#LMMathSymbols10-Regular-0" transform="translate(250.680173 0) scale(0.996264)"/>
     <use xlink:href="#LMRoman17-Regular-1" transform="translate(328.167641 0) scale(0.996264)"/>
     <use xlink:href="#LMRoman17-Regular-32" transform="translate(405.0898 -14.943915) scale(0.757155)"/>
    </g>
   </g>
   <g id="patch_15">
    <path d="M 585.045082 116.304993 
Q 628.316463 127.120763 666.164522 136.580963 
" style="fill: none; stroke: #000000; stroke-width: 5; stroke-linecap: round"/>
    <path d="M 660.052388 131.342469 
L 666.164522 136.580963 
L 658.306446 138.327574 
" style="fill: none; stroke: #000000; stroke-width: 5; stroke-linecap: round"/>
   </g>
   <g id="text_19">
    <!-- $N$ -->
    <g transform="translate(625.642413 122.56336) scale(0.3 -0.3)">
     <defs>
      <path id="LMMathItalic12-Regular-4e" d="M 5491 4281 
C 5491 4352 5434 4352 5408 4352 
L 4826 4339 
L 4518 4339 
C 4429 4339 4314 4352 4224 4352 
C 4186 4352 4109 4352 4109 4230 
C 4109 4166 4160 4166 4205 4166 
C 4589 4153 4614 4007 4614 3892 
C 4614 3835 4608 3816 4589 3726 
L 3866 854 
L 2496 4243 
C 2451 4345 2445 4352 2304 4352 
L 1523 4352 
C 1395 4352 1338 4352 1338 4230 
C 1338 4166 1382 4166 1504 4166 
C 1536 4166 1914 4166 1914 4109 
C 1914 4109 1901 4045 1894 4026 
L 1043 650 
C 966 338 813 204 390 185 
C 358 185 294 179 294 64 
C 294 0 358 0 378 0 
L 960 12 
L 1267 12 
C 1357 12 1466 0 1555 0 
C 1600 0 1670 0 1670 121 
C 1670 179 1606 185 1581 185 
C 1370 191 1165 230 1165 459 
C 1165 510 1178 567 1190 618 
L 2054 4026 
C 2093 3962 2093 3949 2118 3892 
L 3642 115 
C 3674 38 3686 0 3744 0 
C 3808 0 3814 19 3840 128 
L 4736 3682 
C 4806 3956 4909 4147 5395 4166 
C 5414 4166 5491 4172 5491 4281 
z
" transform="scale(0.015625)"/>
     </defs>
     <use xlink:href="#LMMathItalic12-Regular-4e" transform="scale(0.996264)"/>
    </g>
   </g>
  </g>
  <g id="axes_3">
   <g id="patch_16">
    <path d="M 789.965011 266.498268 
L 1048.32 266.498268 
L 1048.32 15.367986 
L 789.965011 15.367986 
z
" style="fill: #ffffff"/>
   </g>
   <g id="PathCollection_4">
    <g clip-path="url(#p24c25b317a)">
     <use xlink:href="#md4a7c63121" x="801.70842" y="74.237668" style="stroke: #000000"/>
     <use xlink:href="#md4a7c63121" x="840.853115" y="118.733872" style="stroke: #000000"/>
     <use xlink:href="#md4a7c63121" x="879.99781" y="145.040358" style="stroke: #000000"/>
     <use xlink:href="#md4a7c63121" x="919.142506" y="163.230084" style="stroke: #000000"/>
     <use xlink:href="#md4a7c63121" x="958.287201" y="177.554673" style="stroke: #000000"/>
     <use xlink:href="#md4a7c63121" x="997.431896" y="189.258711" style="stroke: #000000"/>
     <use xlink:href="#md4a7c63121" x="1036.576591" y="199.154333" style="stroke: #000000"/>
    </g>
   </g>
   <g id="matplotlib.axis_5">
    <g id="xtick_6">
     <g id="line2d_14">
      <g>
       <use xlink:href="#mae8ed89b47" x="801.70842" y="266.498268" style="stroke: #000000; stroke-width: 0.8"/>
      </g>
     </g>
     <g id="text_20">
      <!-- $\mathdefault{1}$ -->
      <g transform="translate(796.225509 289.83424) scale(0.24 -0.24)">
       <use xlink:href="#LMRoman17-Regular-31" transform="scale(0.996264)"/>
      </g>
     </g>
    </g>
    <g id="xtick_7">
     <g id="line2d_15">
      <g>
       <use xlink:href="#mae8ed89b47" x="879.99781" y="266.498268" style="stroke: #000000; stroke-width: 0.8"/>
      </g>
     </g>
     <g id="text_21">
      <!-- $\mathdefault{3}$ -->
      <g transform="translate(874.5149 289.83424) scale(0.24 -0.24)">
       <defs>
        <path id="LMRoman17-Regular-33" d="M 2720 1094 
C 2720 1715 2208 2163 1600 2233 
C 2086 2335 2554 2771 2554 3353 
C 2554 3856 2048 4224 1472 4224 
C 890 4224 378 3862 378 3347 
C 378 3123 544 3084 627 3084 
C 762 3084 877 3167 877 3334 
C 877 3500 762 3584 627 3584 
C 602 3596 570 3596 544 3584 
C 730 4006 1235 4083 1459 4083 
C 1683 4083 2106 3974 2106 3360 
C 2106 3180 2080 2860 1862 2579 
C 1670 2329 1453 2316 1242 2297 
C 1210 2297 1062 2284 1037 2284 
C 992 2278 966 2272 966 2227 
C 966 2182 973 2176 1101 2176 
L 1414 2176 
C 1984 2176 2234 1673 2234 1094 
C 2234 322 1824 25 1453 25 
C 1114 25 563 193 390 691 
C 422 678 454 678 486 678 
C 640 671 755 774 755 940 
C 755 1132 614 1216 486 1216 
C 378 1216 211 1164 211 926 
C 211 334 787 -128 1466 -128 
C 2176 -128 2720 431 2720 1087 
L 2720 1094 
z
" transform="scale(0.015625)"/>
       </defs>
       <use xlink:href="#LMRoman17-Regular-33" transform="scale(0.996264)"/>
      </g>
     </g>
    </g>
    <g id="xtick_8">
     <g id="line2d_16">
      <g>
       <use xlink:href="#mae8ed89b47" x="958.287201" y="266.498268" style="stroke: #000000; stroke-width: 0.8"/>
      </g>
     </g>
     <g id="text_22">
      <!-- $\mathdefault{5}$ -->
      <g transform="translate(952.80429 289.83424) scale(0.24 -0.24)">
       <defs>
        <path id="LMRoman17-Regular-35" d="M 2669 1260 
C 2669 2028 2170 2624 1549 2624 
C 1222 2624 947 2502 730 2271 
L 730 3692 
C 794 3667 1056 3584 1325 3584 
C 1920 3584 2246 3904 2432 4119 
C 2432 4183 2432 4224 2394 4224 
C 2394 4224 2374 4224 2323 4191 
C 2099 4071 1837 3974 1517 3974 
C 1325 3993 1037 4019 723 4160 
C 653 4224 634 4224 634 4224 
C 602 4192 595 4185 595 4057 
L 595 2206 
C 595 2092 595 2061 659 2061 
C 691 2061 704 2074 736 2118 
C 941 2401 1222 2521 1542 2521 
C 1766 2521 2246 2382 2246 1304 
C 2246 1103 2246 735 2054 441 
C 1894 166 1645 25 1370 25 
C 947 25 518 334 403 832 
C 429 806 480 793 506 793 
C 589 793 749 838 749 1036 
C 749 1209 627 1280 506 1280 
C 358 1280 262 1190 262 1011 
C 262 454 704 -128 1382 -128 
C 2042 -128 2669 441 2669 1267 
L 2669 1260 
z
" transform="scale(0.015625)"/>
       </defs>
       <use xlink:href="#LMRoman17-Regular-35" transform="scale(0.996264)"/>
      </g>
     </g>
    </g>
    <g id="xtick_9">
     <g id="line2d_17">
      <g>
       <use xlink:href="#mae8ed89b47" x="1036.576591" y="266.498268" style="stroke: #000000; stroke-width: 0.8"/>
      </g>
     </g>
     <g id="text_23">
      <!-- $\mathdefault{7}$ -->
      <g transform="translate(1031.093681 289.83424) scale(0.24 -0.24)">
       <defs>
        <path id="LMRoman17-Regular-37" d="M 2886 4006 
L 2886 4147 
L 1382 4147 
C 634 4147 621 4230 595 4352 
L 480 4352 
L 294 3148 
L 410 3148 
C 429 3271 474 3601 550 3724 
C 589 3776 1062 3776 1171 3776 
L 2579 3776 
L 1869 2707 
C 1395 1989 1069 1018 1069 169 
C 1069 92 1069 -128 1299 -128 
C 1530 -128 1530 92 1530 176 
L 1530 474 
C 1530 1535 1709 2235 2003 2681 
L 2886 4006 
z
" transform="scale(0.015625)"/>
       </defs>
       <use xlink:href="#LMRoman17-Regular-37" transform="scale(0.996264)"/>
      </g>
     </g>
    </g>
    <g id="text_24">
     <!-- System size $N$ -->
     <g transform="translate(834.003692 318.908257) scale(0.3 -0.3)">
      <defs>
       <path id="LMRoman17-Regular-53" d="M 2970 1141 
C 2970 1476 2848 1734 2778 1850 
C 2509 2263 2221 2340 1914 2417 
C 1869 2437 1856 2437 1498 2527 
C 1152 2617 1005 2662 845 2836 
C 666 3036 602 3243 602 3449 
C 602 3868 934 4326 1478 4326 
C 2157 4326 2579 3842 2675 3036 
C 2694 2920 2701 2914 2746 2914 
C 2803 2914 2803 2933 2803 3043 
L 2803 4351 
C 2803 4467 2797 4473 2758 4473 
C 2720 4473 2707 4447 2682 4390 
L 2490 3965 
C 2246 4320 1875 4480 1472 4480 
C 819 4480 294 3958 294 3301 
C 294 3101 339 2817 557 2546 
C 794 2250 1018 2198 1530 2063 
C 1722 2011 2042 1927 2106 1901 
C 2470 1747 2662 1360 2662 999 
C 2662 534 2336 38 1779 38 
C 1094 38 454 425 410 1328 
C 403 1431 397 1437 352 1437 
C 301 1437 294 1431 294 1302 
L 294 0 
C 294 -116 301 -122 339 -122 
C 384 -122 397 -90 486 109 
C 493 128 493 141 614 386 
C 934 -39 1472 -128 1779 -128 
C 2477 -128 2970 457 2970 1141 
z
" transform="scale(0.015625)"/>
       <path id="LMRoman17-Regular-79" d="M 3034 2585 
L 3034 2752 
L 2630 2739 
C 2496 2739 2285 2739 2157 2752 
L 2157 2585 
C 2400 2566 2406 2386 2406 2334 
C 2406 2270 2394 2238 2362 2161 
L 1664 424 
L 902 2302 
C 870 2379 870 2431 870 2431 
C 870 2572 1018 2585 1171 2585 
L 1171 2752 
C 1018 2739 742 2739 582 2739 
C 410 2739 205 2739 64 2752 
L 64 2585 
C 410 2585 448 2553 531 2347 
L 1485 -14 
C 1197 -773 1030 -1216 627 -1216 
C 557 -1216 397 -1197 282 -1081 
C 429 -1069 493 -978 493 -869 
C 493 -760 416 -663 288 -663 
C 147 -663 77 -760 77 -876 
C 77 -1133 339 -1319 627 -1319 
C 998 -1319 1229 -959 1357 -638 
L 2496 2186 
C 2656 2579 2944 2585 3034 2585 
z
" transform="scale(0.015625)"/>
       <path id="LMRoman17-Regular-73" d="M 2131 793 
C 2131 1119 1958 1292 1875 1369 
C 1683 1567 1459 1612 1190 1663 
C 838 1740 390 1830 390 2216 
C 390 2380 480 2726 1126 2726 
C 1811 2726 1850 2097 1862 1894 
C 1869 1862 1901 1855 1920 1855 
C 1978 1855 1978 1875 1978 1984 
L 1978 2688 
C 1978 2809 1971 2816 1933 2816 
C 1907 2816 1901 2809 1824 2713 
C 1805 2687 1747 2623 1728 2598 
C 1523 2809 1235 2816 1126 2816 
C 416 2816 160 2450 160 2086 
C 160 1507 813 1371 998 1333 
C 1402 1249 1542 1223 1677 1107 
C 1760 1030 1901 888 1901 656 
C 1901 386 1747 38 1158 38 
C 602 38 403 463 288 1030 
C 269 1126 269 1132 218 1132 
C 166 1132 160 1126 160 998 
L 160 76 
C 160 -39 166 -45 205 -45 
C 237 -45 243 -39 275 12 
L 448 275 
C 576 102 800 -64 1158 -64 
C 1792 -64 2131 281 2131 780 
L 2131 793 
z
" transform="scale(0.015625)"/>
       <path id="LMRoman17-Regular-69" d="M 1370 0 
L 1370 166 
C 992 166 979 205 979 436 
L 979 2816 
L 243 2752 
L 243 2585 
C 602 2585 653 2546 653 2237 
L 653 443 
C 653 198 627 166 218 166 
L 218 0 
C 371 12 646 12 806 12 
C 960 12 1222 12 1370 0 
z
M 1056 3897 
C 1056 4051 934 4160 800 4160 
C 646 4160 538 4038 538 3897 
C 538 3743 659 3635 794 3635 
C 947 3635 1056 3756 1056 3897 
z
" transform="scale(0.015625)"/>
       <path id="LMRoman17-Regular-7a" d="M 2381 1152 
L 2266 1152 
C 2214 441 2131 115 1350 115 
L 531 115 
L 2310 2604 
C 2362 2668 2362 2694 2362 2694 
C 2362 2752 2336 2752 2221 2752 
L 275 2752 
L 211 1760 
L 326 1760 
C 371 2380 442 2649 1178 2649 
L 1958 2649 
L 128 96 
C 128 6 134 0 269 0 
L 2291 0 
L 2381 1152 
z
" transform="scale(0.015625)"/>
      </defs>
      <use xlink:href="#LMRoman17-Regular-53" transform="scale(0.996264)"/>
      <use xlink:href="#LMRoman17-Regular-79" transform="translate(50.897088 0) scale(0.996264)"/>
      <use xlink:href="#LMRoman17-Regular-73" transform="translate(99.188301 0) scale(0.996264)"/>
      <use xlink:href="#LMRoman17-Regular-74" transform="translate(134.991539 0) scale(0.996264)"/>
      <use xlink:href="#LMRoman17-Regular-65" transform="translate(170.273067 0) scale(0.996264)"/>
      <use xlink:href="#LMRoman17-Regular-6d" transform="translate(210.757876 0) scale(0.996264)"/>
      <use xlink:href="#LMRoman17-Regular-73" transform="translate(317.756183 0) scale(0.996264)"/>
      <use xlink:href="#LMRoman17-Regular-69" transform="translate(353.559421 0) scale(0.996264)"/>
      <use xlink:href="#LMRoman17-Regular-7a" transform="translate(378.431438 0) scale(0.996264)"/>
      <use xlink:href="#LMRoman17-Regular-65" transform="translate(418.916247 0) scale(0.996264)"/>
      <use xlink:href="#LMMathItalic12-Regular-4e" transform="translate(489.477205 0) scale(0.996264)"/>
     </g>
    </g>
   </g>
   <g id="matplotlib.axis_6">
    <g id="ytick_7">
     <g id="line2d_18">
      <g>
       <use xlink:href="#mdc0198696b" x="789.965011" y="15.367986" style="stroke: #000000; stroke-width: 0.8"/>
      </g>
     </g>
     <g id="text_25">
      <!-- 50 -->
      <g transform="translate(761.033369 23.535972) scale(0.24 -0.24)">
       <use xlink:href="#LMRoman17-Regular-35" transform="scale(0.996264)"/>
       <use xlink:href="#LMRoman17-Regular-30" transform="translate(45.690948 0) scale(0.996264)"/>
      </g>
     </g>
    </g>
    <g id="ytick_8">
     <g id="line2d_19">
      <g>
       <use xlink:href="#mdc0198696b" x="789.965011" y="118.685016" style="stroke: #000000; stroke-width: 0.8"/>
      </g>
     </g>
     <g id="text_26">
      <!-- 10 -->
      <g transform="translate(761.033369 126.853002) scale(0.24 -0.24)">
       <use xlink:href="#LMRoman17-Regular-31" transform="scale(0.996264)"/>
       <use xlink:href="#LMRoman17-Regular-30" transform="translate(45.690948 0) scale(0.996264)"/>
      </g>
     </g>
    </g>
    <g id="ytick_9">
     <g id="line2d_20">
      <g>
       <use xlink:href="#mdc0198696b" x="789.965011" y="266.498268" style="stroke: #000000; stroke-width: 0.8"/>
      </g>
     </g>
     <g id="text_27">
      <!-- 1 -->
      <g transform="translate(771.99919 274.666254) scale(0.24 -0.24)">
       <use xlink:href="#LMRoman17-Regular-31" transform="scale(0.996264)"/>
      </g>
     </g>
    </g>
    <g id="ytick_10">
     <g id="line2d_21">
      <defs>
       <path id="m4c84bc60cc" d="M 0 0 
L -2 0 
" style="stroke: #000000; stroke-width: 0.6"/>
      </defs>
      <g>
       <use xlink:href="#m4c84bc60cc" x="789.965011" y="222.002045" style="stroke: #000000; stroke-width: 0.6"/>
      </g>
     </g>
    </g>
    <g id="ytick_11">
     <g id="line2d_22">
      <g>
       <use xlink:href="#m4c84bc60cc" x="789.965011" y="195.973423" style="stroke: #000000; stroke-width: 0.6"/>
      </g>
     </g>
    </g>
    <g id="ytick_12">
     <g id="line2d_23">
      <g>
       <use xlink:href="#m4c84bc60cc" x="789.965011" y="177.505822" style="stroke: #000000; stroke-width: 0.6"/>
      </g>
     </g>
    </g>
    <g id="ytick_13">
     <g id="line2d_24">
      <g>
       <use xlink:href="#m4c84bc60cc" x="789.965011" y="163.181238" style="stroke: #000000; stroke-width: 0.6"/>
      </g>
     </g>
    </g>
    <g id="ytick_14">
     <g id="line2d_25">
      <g>
       <use xlink:href="#m4c84bc60cc" x="789.965011" y="151.477201" style="stroke: #000000; stroke-width: 0.6"/>
      </g>
     </g>
    </g>
    <g id="ytick_15">
     <g id="line2d_26">
      <g>
       <use xlink:href="#m4c84bc60cc" x="789.965011" y="141.581578" style="stroke: #000000; stroke-width: 0.6"/>
      </g>
     </g>
    </g>
    <g id="ytick_16">
     <g id="line2d_27">
      <g>
       <use xlink:href="#m4c84bc60cc" x="789.965011" y="133.0096" style="stroke: #000000; stroke-width: 0.6"/>
      </g>
     </g>
    </g>
    <g id="ytick_17">
     <g id="line2d_28">
      <g>
       <use xlink:href="#m4c84bc60cc" x="789.965011" y="125.448579" style="stroke: #000000; stroke-width: 0.6"/>
      </g>
     </g>
    </g>
    <g id="ytick_18">
     <g id="line2d_29">
      <g>
       <use xlink:href="#m4c84bc60cc" x="789.965011" y="74.188793" style="stroke: #000000; stroke-width: 0.6"/>
      </g>
     </g>
    </g>
    <g id="ytick_19">
     <g id="line2d_30">
      <g>
       <use xlink:href="#m4c84bc60cc" x="789.965011" y="48.160171" style="stroke: #000000; stroke-width: 0.6"/>
      </g>
     </g>
    </g>
    <g id="ytick_20">
     <g id="line2d_31">
      <g>
       <use xlink:href="#m4c84bc60cc" x="789.965011" y="29.69257" style="stroke: #000000; stroke-width: 0.6"/>
      </g>
     </g>
    </g>
    <g id="text_28">
     <!-- $\mathcal{L}\;\mathrm{-gap\,} (\times10^{-3})$ -->
     <g transform="translate(749.247579 243.1221) rotate(-90) scale(0.3 -0.3)">
      <defs>
       <path id="LMMathSymbols10-Regular-4c" d="M 4198 914 
C 4198 914 4160 933 4141 933 
C 4051 933 3891 862 3789 791 
C 3610 675 3597 636 3558 527 
C 3520 423 3462 333 3462 333 
C 3405 256 3398 256 3296 256 
C 3021 256 2682 346 2432 417 
C 2106 514 1734 623 1395 623 
C 1248 623 1222 617 1152 598 
C 1491 1101 1613 1598 1677 1856 
C 1798 2340 2099 3540 2554 4005 
C 2650 4108 2688 4147 2899 4147 
C 3283 4147 3341 3772 3341 3611 
C 3341 3508 3315 3392 3315 3372 
C 3315 3372 3315 3327 3366 3327 
C 3462 3327 3642 3405 3795 3521 
C 3891 3598 3962 3650 3962 3940 
C 3962 4236 3827 4544 3411 4544 
C 2893 4544 2285 4172 1984 3811 
C 1536 3263 1318 2579 1056 1546 
C 813 578 442 211 429 191 
C 224 6 198 -77 198 -103 
C 198 -103 211 -141 256 -141 
C 371 -141 691 6 851 223 
C 1050 217 1229 217 1824 38 
C 2042 -20 2451 -141 2790 -141 
C 3258 -141 4058 288 4198 914 
z
" transform="scale(0.015625)"/>
       <path id="LMRoman17-Regular-67" d="M 2886 2630 
C 2886 2751 2790 2880 2586 2880 
C 2330 2867 2106 2745 1926 2560 
C 1734 2751 1504 2816 1299 2816 
C 794 2816 358 2399 358 1868 
C 358 1503 570 1273 634 1209 
C 442 1004 442 742 442 710 
C 442 544 506 300 723 166 
C 390 83 128 -171 128 -487 
C 128 -944 736 -1280 1466 -1280 
C 2170 -1280 2803 -956 2803 -481 
C 2803 384 1856 384 1363 384 
C 1216 390 954 390 922 396 
C 723 428 589 605 589 827 
C 589 884 589 1024 710 1165 
C 832 1068 1043 960 1299 960 
C 1805 960 2240 1358 2240 1891 
C 2240 2058 2189 2315 1997 2515 
C 2176 2707 2438 2771 2586 2771 
C 2611 2771 2650 2771 2682 2752 
C 2656 2745 2598 2720 2598 2617 
C 2598 2540 2656 2483 2739 2483 
C 2835 2476 2886 2540 2886 2624 
L 2886 2630 
z
M 1862 1891 
C 1862 1763 1862 1068 1299 1068 
C 736 1068 736 1763 736 1891 
C 736 2020 736 2707 1299 2707 
C 1862 2707 1862 2020 1862 1891 
z
M 2547 -485 
C 2547 -835 2106 -1172 1466 -1172 
C 826 -1178 384 -839 384 -487 
C 384 -289 493 -103 634 0 
C 794 102 858 102 1293 102 
C 1818 102 2547 102 2547 -493 
L 2547 -485 
z
" transform="scale(0.015625)"/>
       <path id="LMRoman17-Regular-70" d="M 3053 1401 
C 3053 2207 2496 2816 1837 2816 
C 1453 2816 1139 2606 960 2355 
L 960 2816 
L 198 2752 
L 198 2585 
C 576 2585 634 2547 634 2240 
L 634 -815 
C 634 -1057 608 -1088 198 -1088 
L 198 -1255 
C 352 -1242 634 -1242 800 -1242 
C 966 -1242 1254 -1242 1408 -1255 
L 1408 -1088 
C 998 -1088 973 -1063 973 -815 
L 973 382 
C 1158 109 1427 -64 1766 -64 
C 2406 -64 3053 505 3053 1389 
L 3053 1401 
z
M 2643 1382 
C 2643 642 2234 38 1728 38 
C 1498 38 1248 148 1056 454 
C 973 596 973 635 973 739 
L 973 2025 
C 973 2116 973 2252 1222 2489 
C 1254 2508 1472 2700 1792 2700 
C 2259 2700 2643 2118 2643 1388 
L 2643 1382 
z
" transform="scale(0.015625)"/>
       <path id="CMR10-28" d="M 2118 -1536 
C 2118 -1517 2118 -1504 2010 -1396 
C 1210 -589 1005 620 1005 1600 
C 1005 2713 1248 3827 2035 4627 
C 2118 4704 2118 4716 2118 4736 
C 2118 4780 2093 4800 2054 4800 
C 1990 4800 1414 4365 1037 3552 
C 710 2848 634 2137 634 1600 
C 634 1100 704 326 1056 -397 
C 1440 -1184 1990 -1600 2054 -1600 
C 2093 -1600 2118 -1581 2118 -1536 
z
" transform="scale(0.015625)"/>
       <path id="CMR10-29" d="M 1850 1600 
C 1850 2099 1779 2873 1427 3597 
C 1043 4384 493 4800 429 4800 
C 390 4800 365 4774 365 4736 
C 365 4716 365 4704 486 4589 
C 1114 3955 1478 2937 1478 1600 
C 1478 505 1242 -621 448 -1428 
C 365 -1504 365 -1517 365 -1536 
C 365 -1575 390 -1600 429 -1600 
C 493 -1600 1069 -1165 1446 -352 
C 1773 352 1850 1062 1850 1600 
z
" transform="scale(0.015625)"/>
      </defs>
      <use xlink:href="#LMMathSymbols10-Regular-4c" transform="scale(0.996264)"/>
      <use xlink:href="#LMMathSymbols10-Regular-0" transform="translate(96.388817 0) scale(0.996264)"/>
      <use xlink:href="#LMRoman17-Regular-67" transform="translate(173.876284 0) scale(0.996264)"/>
      <use xlink:href="#LMRoman17-Regular-61" transform="translate(219.567233 0) scale(0.996264)"/>
      <use xlink:href="#LMRoman17-Regular-70" transform="translate(265.258181 0) scale(0.996264)"/>
      <use xlink:href="#CMR10-28" transform="translate(334.004973 0) scale(1.038107)"/>
      <use xlink:href="#LMMathSymbols10-Regular-2" transform="translate(375.499379 0) scale(0.996264)"/>
      <use xlink:href="#LMRoman17-Regular-31" transform="translate(452.986846 0) scale(0.996264)"/>
      <use xlink:href="#LMRoman17-Regular-30" transform="translate(498.677795 0) scale(0.996264)"/>
      <use xlink:href="#LMMathSymbols10-Regular-0" transform="translate(544.368743 36.153639) scale(0.757155)"/>
      <use xlink:href="#LMRoman17-Regular-33" transform="translate(603.258791 36.153639) scale(0.757155)"/>
      <use xlink:href="#CMR10-29" transform="translate(639.727092 0) scale(1.038107)"/>
     </g>
    </g>
   </g>
   <g id="line2d_32">
    <path d="M 801.70842 74.258042 
L 805.249146 79.816804 
L 808.789872 84.932344 
L 812.330598 89.670152 
L 815.871325 94.082195 
L 819.412051 98.210406 
L 824.133019 103.331617 
L 828.853987 108.074288 
L 833.574956 112.490549 
L 838.295924 116.622451 
L 843.016892 120.504408 
L 848.918103 125.048367 
L 854.819313 129.291837 
L 860.720523 133.272108 
L 867.801976 137.743938 
L 874.883428 141.92444 
L 881.96488 145.849264 
L 890.226575 150.144127 
L 898.488269 154.169577 
L 906.749964 157.957428 
L 916.1919 162.029249 
L 925.633837 165.858129 
L 936.256016 169.909124 
L 946.878194 173.719586 
L 958.680615 177.703976 
L 970.483036 181.455451 
L 983.465698 185.343644 
L 997.628603 189.33285 
L 1011.791508 193.088594 
L 1027.134655 196.923708 
L 1036.576591 199.174731 
L 1036.576591 199.174731 
" clip-path="url(#p24c25b317a)" style="fill: none; stroke-dasharray: 11.1,4.8; stroke-dashoffset: 0; stroke: #808080; stroke-width: 3"/>
   </g>
   <g id="patch_17">
    <path d="M 789.965011 266.498268 
L 789.965011 15.367986 
" style="fill: none; stroke: #000000; stroke-width: 0.8; stroke-linejoin: miter; stroke-linecap: square"/>
   </g>
   <g id="patch_18">
    <path d="M 1048.32 266.498268 
L 1048.32 15.367986 
" style="fill: none; stroke: #000000; stroke-width: 0.8; stroke-linejoin: miter; stroke-linecap: square"/>
   </g>
   <g id="patch_19">
    <path d="M 789.965011 266.498268 
L 1048.32 266.498268 
" style="fill: none; stroke: #000000; stroke-width: 0.8; stroke-linejoin: miter; stroke-linecap: square"/>
   </g>
   <g id="patch_20">
    <path d="M 789.965011 15.367986 
L 1048.32 15.367986 
" style="fill: none; stroke: #000000; stroke-width: 0.8; stroke-linejoin: miter; stroke-linecap: square"/>
   </g>
   <g id="legend_2">
    <g id="patch_21">
     <path d="M 879.797149 68.018591 
L 1031.52 68.018591 
Q 1036.32 68.018591 1036.32 63.218591 
L 1036.32 32.167986 
Q 1036.32 27.367986 1031.52 27.367986 
L 879.797149 27.367986 
Q 874.997149 27.367986 874.997149 32.167986 
L 874.997149 63.218591 
Q 874.997149 68.018591 879.797149 68.018591 
z
" style="fill: #ffffff; opacity: 0.8; stroke: #cccccc; stroke-linejoin: miter"/>
    </g>
    <g id="line2d_33">
     <path d="M 884.597149 45.367986 
L 908.597149 45.367986 
L 932.597149 45.367986 
" style="fill: none; stroke-dasharray: 11.1,4.8; stroke-dashoffset: 0; stroke: #808080; stroke-width: 3"/>
    </g>
    <g id="text_29">
     <!-- $1/N$ fit -->
     <g transform="translate(951.797149 53.767986) scale(0.24 -0.24)">
      <defs>
       <path id="URWPalladioL-Roma-2f" d="M 3322 4646 
L 2938 4646 
L 557 -762 
L 941 -762 
L 3322 4646 
z
" transform="scale(0.015625)"/>
       <path id="LMRoman17-Regular-c" d="M 2989 0 
L 2989 166 
C 2579 166 2554 192 2554 442 
L 2554 2816 
L 1805 2764 
C 1766 2752 1754 2752 1677 2752 
L 947 2752 
L 947 3513 
C 947 4127 1434 4416 1818 4416 
C 1939 4416 2214 4383 2355 4160 
C 2291 4160 2086 4160 2086 3935 
C 2086 3782 2189 3705 2317 3705 
C 2432 3705 2547 3769 2547 3942 
C 2547 4265 2240 4518 1843 4518 
C 1338 4518 634 4225 634 3516 
L 634 2752 
L 122 2752 
L 122 2585 
L 634 2585 
L 634 441 
C 634 198 608 166 198 166 
L 198 0 
C 352 12 634 12 794 12 
C 960 12 1242 12 1395 0 
L 1395 166 
C 986 166 960 192 960 441 
L 960 2585 
L 1901 2585 
C 2176 2585 2227 2528 2227 2246 
L 2227 441 
C 2227 198 2202 166 1792 166 
L 1792 0 
C 1946 12 2227 12 2387 12 
C 2554 12 2835 12 2989 0 
z
" transform="scale(0.015625)"/>
      </defs>
      <use xlink:href="#LMRoman17-Regular-31" transform="scale(0.996264)"/>
      <use xlink:href="#URWPalladioL-Roma-2f" transform="translate(46.936248 0) scale(0.996264)"/>
      <use xlink:href="#LMMathItalic12-Regular-4e" transform="translate(108.555153 0) scale(0.996264)"/>
      <use xlink:href="#LMRoman17-Regular-c" transform="translate(227.153074 0) scale(0.996264)"/>
      <use xlink:href="#LMRoman17-Regular-74" transform="translate(276.897106 0) scale(0.996264)"/>
     </g>
    </g>
   </g>
  </g>
 </g>
 <defs>
  <clipPath id="pdd7e61b6ba">
   <rect x="66.219269" y="15.367986" width="258.354989" height="251.130282"/>
  </clipPath>
  <clipPath id="p3439eb3961">
   <rect x="428.09214" y="15.367986" width="258.354989" height="251.130282"/>
  </clipPath>
  <clipPath id="p24c25b317a">
   <rect x="789.965011" y="15.367986" width="258.354989" height="251.130282"/>
  </clipPath>
 </defs>
</svg>
